<?xml version="1.0" encoding="UTF-8"?>
<svg width="372px" height="416px" viewBox="0 0 372 416" version="1.1" xmlns="http://www.w3.org/2000/svg" xmlns:xlink="http://www.w3.org/1999/xlink">
    <!-- Generator: Sketch 43.2 (39069) - http://www.bohemiancoding.com/sketch -->
    <title>Group</title>
    <desc>Created with Sketch.</desc>
    <defs>
        <polygon id="path-1" points="0.000144985131 0.018 104.308156 0.018 104.308156 200.767 0.000144985131 200.767 0.000144985131 0.018"></polygon>
        <polygon id="path-3" points="21.777 0.757 21.777 138.691 0.00589080469 138.691 0.00589080469 0.757 21.777 0.757"></polygon>
    </defs>
    <g id="Page-1" stroke="none" stroke-width="1" fill="none" fill-rule="evenodd">
        <g id="Group">
            <path d="M174.345,76.428 C158.096,79.457 154.505,90.966 137.51,101.501 C120.514,112.035 110.401,139.424 122.2,146.869 C133.998,154.313 150.151,117.794 179.367,107.961 C208.582,98.13 185.475,74.354 174.345,76.428" id="Fill-1" fill="#4C6E81"></path>
            <path d="M205,44.825 C218.484,44.825 215.535,59.152 217.536,68.633 C219.538,78.114 222.172,87.384 207.634,88.964 C198.523,89.955 192.043,87.173 192.991,73.058 C193.94,58.941 190.147,44.825 205,44.825" id="Fill-2" fill="#E46E5E"></path>
            <path d="M217.436,68.109 C215.64,58.633 218.239,44.825 205,44.825 C199.777,44.825 196.866,46.575 195.237,49.452 C194.321,61.227 196.333,77.82 217.436,68.109" id="Fill-3" fill="#CB514A"></path>
            <path d="M185.682,389.269 C195.334,388.85 195.815,394.454 197.228,401.522 C198.642,408.591 199.584,414.246 198.171,414.482 C196.757,414.717 183.797,414.482 175.55,414.482 C167.303,414.482 168.246,410.791 172.487,399.323 C176.729,387.856 180.263,389.505 185.682,389.269" id="Fill-4" fill="#CAA49D"></path>
            <path d="M198.171,410.476 C196.757,410.711 183.797,410.476 175.55,410.476 C172.091,410.476 170.253,409.823 169.593,408.222 C168.617,412.806 170.003,414.482 175.55,414.482 C183.797,414.482 196.757,414.717 198.171,414.482 C198.94,414.353 199.009,412.609 198.685,409.912 C198.571,410.234 198.406,410.437 198.171,410.476" id="Fill-5" fill="#40606F"></path>
            <path d="M242.322,390.861 C250.486,390.861 251.573,388.899 254.657,393.665 C257.741,398.43 266.992,404.878 271.478,407.121 C275.963,409.364 274.842,412.447 271.478,414.41 C268.113,416.372 247.088,413.007 238.678,413.849 C230.269,414.69 231.95,408.522 235.034,400.673 C238.117,392.824 239.239,390.861 242.322,390.861" id="Fill-6" fill="#CAA49D"></path>
            <path d="M271.478,410.639 C268.113,412.602 247.088,409.238 238.678,410.079 C235.081,410.438 233.334,409.513 232.749,407.724 C231.946,411.837 233.055,414.411 238.678,413.848 C247.088,413.007 268.113,416.372 271.478,414.41 C274.075,412.894 275.322,410.711 273.697,408.762 C273.181,409.447 272.422,410.088 271.478,410.639" id="Fill-7" fill="#40606F"></path>
            <path d="M217.257,168.25 C254.015,167.543 250.481,175.318 251.894,215.611 C253.308,255.904 258.256,289.835 256.135,302.558 C254.015,315.282 252.183,312.451 254.957,357.695 C257.117,392.921 256.803,393.825 256.803,393.825 C256.803,393.825 243.804,394.924 234.379,400.58 C234.379,400.58 221.184,340.887 222.44,318.895 C223.697,296.903 211.444,222.444 211.444,222.444 C211.444,222.444 209.346,256.313 208.303,284.65 C207.916,295.152 208.258,304.675 208.067,311.748 C207.825,320.7 203.933,334.575 202.412,348.035 C199.489,373.898 197.935,399.952 197.935,399.952 C197.935,399.952 182.541,391.468 172.487,399.323 C172.487,399.323 171.544,351.334 171.073,335.782 C170.602,320.23 171.073,308.213 172.959,295.961 C174.843,283.708 169.188,192.284 170.602,181.445 C172.016,170.606 209.717,168.721 217.257,168.25" id="Fill-8" fill="#1A1B2B"></path>
            <path d="M178.074,238.826 C181.254,236.036 184.025,232.703 185.591,228.735 C187.044,225.054 187.076,220.964 187.703,217.096 C188.238,213.789 189.101,210.301 191.419,207.758 C193.861,205.079 197.326,204.334 200.797,203.98 C210.004,203.039 219.218,205.04 228.425,205.017 C234.286,205.002 240.947,205.128 245.965,201.677 C247.904,200.343 249.624,198.746 251.357,197.169 C250.471,172.84 247.52,167.668 217.257,168.25 C209.717,168.721 172.016,170.606 170.602,181.445 C169.848,187.225 171.105,215.924 172.155,243.312 C174.213,241.937 176.204,240.466 178.074,238.826" id="Fill-9" fill="#13141D"></path>
            <path d="M192.359,71.688 C192.359,71.688 202.683,80.116 206.37,80.116 C210.057,80.116 218.801,67.79 218.801,67.79 C218.801,67.79 241.449,70.74 251.773,75.586 C262.097,80.432 249.625,158.689 256.999,190.713 C256.999,190.713 237.835,197.311 217.728,197.311 C198.564,197.311 175.315,194.797 175.315,194.797 C175.315,194.797 178.875,115.195 174.872,112.456 C170.869,109.717 165.391,78.114 172.976,76.639 C180.561,75.164 191.024,72.917 192.359,71.688" id="Fill-10" fill="#4C6E81"></path>
            <path d="M218.801,67.79 C218.801,67.79 210.057,80.116 206.37,80.116 C202.683,80.116 192.359,71.688 192.359,71.688 L185.512,73.69 L198.785,89.386 L206.686,81.59 L218.484,87.279 L224.173,68.844 C224.173,68.844 220.065,66.947 218.801,67.79" id="Fill-11" fill="#6596A9"></path>
            <path d="M207.318,82.539 C207.318,82.539 212.796,86.963 214.271,110.56 C215.745,134.157 217.139,197.114 217.139,197.114" id="Stroke-12" stroke="#6596A9"></path>
            <path d="M217.747,103.081 C217.747,103.895 217.087,104.555 216.273,104.555 C215.458,104.555 214.797,103.895 214.797,103.081 C214.797,102.266 215.458,101.606 216.273,101.606 C217.087,101.606 217.747,102.266 217.747,103.081" id="Fill-13" fill="#6596A9"></path>
            <path d="M219.801,119.936 C219.801,120.75 219.141,121.411 218.326,121.411 C217.512,121.411 216.852,120.75 216.852,119.936 C216.852,119.121 217.512,118.461 218.326,118.461 C219.141,118.461 219.801,119.121 219.801,119.936" id="Fill-14" fill="#6596A9"></path>
            <path d="M221.257,140.968 C221.257,141.783 220.597,142.443 219.782,142.443 C218.968,142.443 218.307,141.783 218.307,140.968 C218.307,140.154 218.968,139.494 219.782,139.494 C220.597,139.494 221.257,140.154 221.257,140.968" id="Fill-15" fill="#6596A9"></path>
            <path d="M222.03,160.003 C222.03,160.817 221.37,161.478 220.556,161.478 C219.741,161.478 219.08,160.817 219.08,160.003 C219.08,159.188 219.741,158.528 220.556,158.528 C221.37,158.528 222.03,159.188 222.03,160.003" id="Fill-16" fill="#6596A9"></path>
            <path d="M222.03,177.44 C222.03,178.254 221.37,178.914 220.556,178.914 C219.741,178.914 219.08,178.254 219.08,177.44 C219.08,176.625 219.741,175.964 220.556,175.964 C221.37,175.964 222.03,176.625 222.03,177.44" id="Fill-17" fill="#6596A9"></path>
            <path d="M221.912,192.991 C221.912,193.805 221.252,194.465 220.438,194.465 C219.623,194.465 218.963,193.805 218.963,192.991 C218.963,192.176 219.623,191.516 220.438,191.516 C221.252,191.516 221.912,192.176 221.912,192.991" id="Fill-18" fill="#6596A9"></path>
            <path d="M214.603,49.667 C214.603,52.133 216.666,54.132 219.212,54.132 C221.758,54.132 223.822,52.133 223.822,49.667 C223.822,47.202 221.758,45.203 219.212,45.203 C216.666,45.203 214.603,47.202 214.603,49.667" id="Fill-19" fill="#E46E5E"></path>
            <path d="M221.967,48.334 C221.967,48.334 218.951,48.276 216.342,49.378" id="Stroke-20" stroke="#CB514A"></path>
            <path d="M194.116,49.667 C194.116,52.133 192.053,54.132 189.507,54.132 C186.961,54.132 184.897,52.133 184.897,49.667 C184.897,47.202 186.961,45.203 189.507,45.203 C192.053,45.203 194.116,47.202 194.116,49.667" id="Fill-21" fill="#E46E5E"></path>
            <path d="M186.753,48.334 C186.753,48.334 189.768,48.276 192.377,49.378" id="Stroke-22" stroke="#CB514A"></path>
            <path d="M218.035,46.831 C218.035,57.37 211.815,65.914 204.142,65.914 C196.469,65.914 190.248,57.37 190.248,46.831 C190.248,36.291 186.187,27.747 204.142,27.747 C219.261,27.747 218.035,36.291 218.035,46.831" id="Fill-23" fill="#E46E5E"></path>
            <path d="M200.918,40.19 C200.918,40.617 199.201,40.964 197.082,40.964 C194.964,40.964 193.246,40.617 193.246,40.19 C193.246,39.763 194.964,39.417 197.082,39.417 C199.201,39.417 200.918,39.763 200.918,40.19" id="Fill-24" fill="#622A2E"></path>
            <path d="M198.017,44.59 C198.017,45.454 197.599,46.154 197.082,46.154 C196.565,46.154 196.148,45.454 196.148,44.59 C196.148,43.727 196.565,43.027 197.082,43.027 C197.599,43.027 198.017,43.727 198.017,44.59" id="Fill-25" fill="#622A2E"></path>
            <path d="M214.828,40.19 C214.828,40.617 213.11,40.964 210.992,40.964 C208.873,40.964 207.156,40.617 207.156,40.19 C207.156,39.763 208.873,39.417 210.992,39.417 C213.11,39.417 214.828,39.763 214.828,40.19" id="Fill-26" fill="#622A2E"></path>
            <path d="M211.927,44.59 C211.927,45.454 211.508,46.154 210.992,46.154 C210.476,46.154 210.058,45.454 210.058,44.59 C210.058,43.727 210.476,43.027 210.992,43.027 C211.508,43.027 211.927,43.727 211.927,44.59" id="Fill-27" fill="#622A2E"></path>
            <path d="M207.14,49.506 C207.14,49.506 209.315,52.117 206.414,52.407 M204.142,51.73 C204.142,51.73 203.368,51.392 202.546,52.311" id="Stroke-28" stroke="#CB514A"></path>
            <path d="M200.854,56.469 C200.854,56.469 205.834,56.373 209.122,55.164 C209.122,55.164 206.802,62.223 200.854,56.469" id="Fill-29" fill="#CB514A"></path>
            <path d="M190.119,47.605 C191.994,47.693 191.15,42.705 191.086,41.157 C191.022,39.61 194.31,37.547 192.698,35.612 C191.086,33.678 191.603,30.713 195.342,29.23 C195.342,29.23 189.088,28.069 186.96,33.678 C184.833,39.288 188.766,47.54 190.119,47.605" id="Fill-30" fill="#622A2E"></path>
            <path d="M218.255,47.605 C216.38,47.693 217.224,42.705 217.288,41.157 C217.353,39.61 214.065,37.547 215.676,35.612 C217.288,33.678 215.899,30.558 212.159,29.075 C212.159,29.075 219.286,28.069 221.414,33.678 C223.541,39.288 219.608,47.54 218.255,47.605" id="Fill-31" fill="#622A2E"></path>
            <path d="M206.173,29.037 C203.863,29.543 202.434,30.455 199.919,29.746 C197.404,29.037 193.987,29.81 193.987,29.81 C193.987,29.81 188.605,33.775 188.282,32.873 C187.959,31.97 189.539,21.107 192.505,19.301 C192.505,19.301 191.667,22.396 193.601,22.396 C195.535,22.396 194.567,18.398 197.34,16.722 C197.34,16.722 195.729,20.01 197.533,20.139 C199.339,20.268 199.21,15.691 204.303,16.078 C204.303,16.078 202.885,18.205 203.787,19.108 C204.69,20.01 206.946,17.044 209.139,17.689 C209.139,17.689 207.849,20.655 209.719,21.558 C209.719,21.558 211.523,21.751 212.233,19.108 C212.233,19.108 213.974,20.913 214.296,24.008 L214.618,27.102 C214.618,27.102 216.488,25.62 217.197,23.041 C217.197,23.041 216.424,31.486 214.747,30.584 C213.071,29.681 208.816,28.456 206.173,29.037" id="Fill-32" fill="#622A2E"></path>
            <path d="M191.425,54.341 C191.425,54.341 191.812,61.498 191.474,62.417 C191.135,63.336 195.196,67.252 195.342,67.252 C195.486,67.252 196.309,64.738 196.309,64.738 L196.453,68.268 C196.453,68.268 201.289,70.927 205.399,70.588 L206.511,68.123 L206.802,70.492 C206.802,70.492 211.491,69.573 214.103,67.639 L213.909,64.738 L214.779,67.01 C214.779,67.01 216.568,65.173 217.101,64.157 L216.811,60.676 L217.681,63.045 C217.681,63.045 219.373,59.854 219.325,58.838 C219.276,57.823 217.633,53.181 217.73,50.473 C217.73,50.473 212.99,59.467 210.187,60.289 C207.382,61.111 208.3,59.806 204.915,59.951 C201.53,60.096 201.966,62.417 197.856,60.289 C193.746,58.162 191.764,55.357 191.425,54.341" id="Fill-33" fill="#622A2E"></path>
            <path d="M202.426,57.761 C203.234,57.754 204.219,57.654 205.426,57.416 C206.621,57.181 207.594,56.905 208.41,56.612 C208.898,55.845 209.122,55.164 209.122,55.164 C205.834,56.373 200.854,56.469 200.854,56.469 C201.409,57.006 201.933,57.431 202.426,57.761" id="Fill-34" fill="#FFFFFF"></path>
            <path d="M203.014,28.723 C203.189,28.889 203.217,29.2 203.079,29.417 C202.957,29.644 202.762,29.81 202.562,29.951 C202.15,30.218 201.7,30.409 201.246,30.56 C200.328,30.868 199.408,31.036 198.508,31.289 C197.611,31.528 196.704,31.784 195.977,32.29 C195.213,32.785 195,33.765 195.074,34.703 C194.949,34.247 194.891,33.762 194.971,33.269 C195.063,32.777 195.352,32.316 195.734,31.991 C196.513,31.336 197.47,31.063 198.38,30.805 C199.299,30.562 200.24,30.401 201.138,30.193 C201.59,30.091 202.031,29.946 202.436,29.742 C202.826,29.575 203.275,29.186 203.014,28.723" id="Fill-35" fill="#622A2E"></path>
            <path d="M205.074,28.623 C205.295,29.402 204.907,30.287 204.284,30.82 C203.68,31.398 202.883,31.689 202.132,31.923 C201.389,32.136 200.66,32.39 199.94,32.669 C199.229,32.961 198.52,33.28 197.889,33.748 C198.384,33.122 199.083,32.692 199.779,32.32 C200.484,31.948 201.232,31.673 201.99,31.443 C202.728,31.226 203.443,30.975 204.038,30.527 C204.636,30.102 205.076,29.417 205.074,28.623" id="Fill-36" fill="#622A2E"></path>
            <path d="M113.351,59.889 C126.774,65.762 149.168,89.175 152.434,92.02 C155.699,94.864 172.87,135.316 173.818,141.953 C174.767,148.589 159.913,152.382 153.381,140.478 C146.85,128.574 119.39,102.905 110.682,96.584 C101.973,90.264 88.911,81.134 93.967,67.509 C99.024,53.885 111.665,59.152 113.351,59.889" id="Fill-37" fill="#4C6E81"></path>
            <path d="M143.38,123.923 C139.038,115.312 134.378,106.857 129.361,98.619 C127.101,94.908 124.96,91.53 121.588,88.716 C118.419,86.07 115.072,83.617 111.857,81.023 C106.111,76.387 100.281,71.628 93.778,68.077 C89.289,81.386 102.096,90.353 110.682,96.584 C117.692,101.672 136.844,119.293 147.459,132.183 C146.109,129.424 144.763,126.665 143.38,123.923" id="Fill-38" fill="#425F6C"></path>
            <path d="M145.183,396.362 C149.548,396.191 148.524,398.932 151.351,402.402 C154.178,405.872 163.688,409.085 166.644,410.241 C169.599,411.398 169.728,415.895 168.314,415.895 C166.9,415.895 152.122,415.381 144.412,415.381 C136.701,415.381 136.187,415.638 137.215,409.598 C138.243,403.559 138.628,396.619 145.183,396.362" id="Fill-39" fill="#AC4153"></path>
            <path d="M168.314,412.041 C166.9,412.041 152.122,411.526 144.412,411.526 C139.774,411.526 137.75,411.609 137.089,410.369 C136.253,415.601 137.051,415.381 144.412,415.381 C152.122,415.381 166.9,415.895 168.314,415.895 C169.302,415.895 169.533,413.699 168.574,411.98 C168.494,412.018 168.408,412.041 168.314,412.041" id="Fill-40" fill="#11121A"></path>
            <path d="M133.765,395.396 C139.41,395.738 142.248,415.267 140.913,415.267 L123.084,415.267 C121.12,415.267 122.063,411.654 123.712,410.084 C125.361,408.512 127.953,403.486 128.032,399.873 C128.11,396.259 131.173,395.239 133.765,395.396" id="Fill-41" fill="#C0485C"></path>
            <path d="M122.791,411.291 C121.798,413.012 121.532,415.267 123.084,415.267 L140.913,415.267 C141.299,415.267 141.334,413.626 141.054,411.291 L122.791,411.291" id="Fill-42" fill="#161823"></path>
            <path d="M157.279,102.554 L145.059,102.554 C145.059,102.554 149.378,131.313 156.015,140.689 C162.652,150.065 163.179,221.816 163.179,221.816 L180.982,233.284 C180.982,233.284 180.982,142.795 178.137,137.528 C175.293,132.261 157.279,102.554 157.279,102.554" id="Fill-43" fill="#AF8C88"></path>
            <path d="M151.28,170.724 C163.175,171.067 170.288,167.15 169.816,184.586 C169.345,202.023 174.372,206.107 171.544,233.754 C169.362,255.09 150.338,401.051 150.338,401.051 C150.338,401.051 138.557,406.706 127.246,401.051 C127.246,401.051 124.419,324.708 127.246,308.213 C130.074,291.719 116.878,246.007 118.764,211.134 C120.649,176.261 139.028,170.371 151.28,170.724" id="Fill-44" fill="#4C6E81"></path>
            <path d="M148.453,220.402 C150.034,234.854 149.344,260.844 149.71,273.183 C150.035,284.183 151.148,287.623 151.124,298.631 C151.098,310.42 147.825,310.098 144.997,340.573 C143.036,361.711 140.665,382.147 139.263,403.329 C144.447,352.119 152.223,306.328 152.223,306.328 C152.223,306.328 150.902,234.869 151.222,221.59 C151.251,220.363 153.941,219.75 153.951,219.617 C153.951,219.617 148.445,220.33 148.453,220.402" id="Fill-45" fill="#40606F"></path>
            <path d="M126.259,229.613 C129.014,228.017 131.982,226.787 134.506,224.812 C140.746,219.929 138.151,211.912 140.645,205.34 C141.27,203.693 142.163,202.081 143.83,201.325 C145.763,200.449 148.124,200.764 150.181,200.619 C157.339,200.117 164.149,197.295 170.046,193.266 C169.835,190.682 169.728,187.872 169.816,184.586 C170.288,167.15 163.175,171.067 151.28,170.724 C139.028,170.37 120.648,176.261 118.764,211.134 C118.368,218.455 118.642,226.255 119.288,234.161 C121.591,232.611 123.867,230.999 126.259,229.613" id="Fill-46" fill="#40606F"></path>
            <path d="M141.583,105.609 C166.345,106.085 168.551,107.61 171.29,122.358 C174.029,137.107 174.169,141.251 176.698,145.464 C179.226,149.678 170.798,179.879 170.798,187.885 C170.798,187.885 158.035,192.284 148.61,192.284 C137.614,192.284 120.936,187.885 120.936,187.885 C120.936,187.885 107.732,118.075 113.351,112.878 C118.969,107.681 136.105,105.503 141.583,105.609" id="Fill-47" fill="#AC4153"></path>
            <path d="M140.036,170.314 C140.055,165.67 139.903,160.055 143.192,156.344 C147.82,151.122 155.449,153.934 161.422,153.845 C166.852,153.765 172.166,152.636 177.071,150.502 C177.263,148.082 177.188,146.281 176.698,145.464 C174.169,141.251 174.029,137.107 171.29,122.358 C168.551,107.61 166.345,106.085 141.583,105.609 C136.105,105.503 118.969,107.681 113.351,112.878 C107.732,118.075 120.936,187.885 120.936,187.885 C120.936,187.885 129.782,190.217 138.837,191.485 C139.753,184.479 140.006,177.37 140.036,170.314" id="Fill-48" fill="#A23D50"></path>
            <path d="M151.485,80.203 C159.986,79.923 155.067,94.618 155.067,106.979 C155.067,117.588 167.006,131.77 154.505,131.77 C142.004,131.77 127.537,118.707 131.189,107.54 C134.841,96.374 136.456,109.871 136.456,87.173 C136.456,80.572 147.346,80.339 151.485,80.203" id="Fill-49" fill="#BB6B4B"></path>
            <path d="M155.442,82.19 C154.85,81.611 154.255,81.068 153.664,80.566 C153.061,80.307 152.344,80.175 151.485,80.203 C149.85,80.257 147.161,80.328 144.505,80.798 C143.555,84.573 142.397,90.974 143.664,96.325 C144.843,98.52 146.689,100.266 149.519,101.079 C151.55,101.663 153.482,101.89 155.295,101.871 C155.925,93.835 157.528,85.806 155.442,82.19" id="Fill-50" fill="#A0543E"></path>
            <path d="M134.419,96.444 C134.419,96.444 133.998,109.788 139.898,119.198 C139.898,119.198 135.824,148.414 133.577,155.016 C131.33,161.617 130.908,220.559 130.908,220.559 C130.908,220.559 123.684,226.377 120.884,227.628 C117.771,229.02 107.592,230.691 107.592,230.691 C107.592,230.691 105.906,143.217 104.502,143.076 C103.097,142.936 77.534,167.446 77.534,167.446 L55.481,167.446 C55.481,167.446 77.534,122.85 97.9,115.125 C118.267,107.4 132.032,99.956 134.419,96.444" id="Fill-51" fill="#CAA49D"></path>
            <path d="M157.016,102.238 C157.016,102.238 160.44,110.244 160.387,114.932 C160.335,119.62 160.043,125.947 162.582,128.75 C182.855,151.128 177.33,201.305 177.4,222.444 L180.982,233.284 C180.982,233.284 179.507,155.384 182.193,148.063 C184.879,140.741 180.666,130.786 180.613,126.994 C180.561,123.201 179.876,110.718 173.555,106.873 C167.234,103.028 159.492,104.398 157.016,102.238" id="Fill-52" fill="#CAA49D"></path>
            <path d="M162.604,80.391 C162.604,80.391 161.853,87.336 161.488,95.791 C161.124,104.247 164.808,112.869 172.346,121.188 C179.883,129.506 173.444,139.23 173.444,139.23 C173.444,139.23 177.302,143.238 172.607,146.044 C167.912,148.849 157.08,151.164 154.395,145.677 C154.395,145.677 137.165,144.631 139.596,130.21 C142.027,115.789 154.947,107.082 155.72,97.873 C156.492,88.663 159.451,79.413 162.604,80.391" id="Fill-53" fill="#11121A"></path>
            <path d="M163.567,83.094 C162.848,86.581 162.501,90.14 162.53,93.684 C162.553,95.455 162.661,97.227 162.957,98.97 C163.072,99.847 163.3,100.701 163.492,101.561 C163.757,102.401 163.983,103.254 164.338,104.062 C165.581,107.376 167.747,110.242 170.069,112.915 C171.225,114.264 172.441,115.571 173.545,116.979 C174.628,118.392 175.613,119.943 176.03,121.686 C175.532,119.964 174.49,118.483 173.355,117.132 C172.221,115.768 170.978,114.494 169.781,113.17 C167.389,110.538 165.181,107.617 163.874,104.246 C163.519,103.417 163.293,102.543 163.031,101.682 C162.842,100.804 162.618,99.932 162.508,99.04 C162.231,97.268 162.11,95.473 162.147,93.684 C162.184,90.106 162.669,86.542 163.567,83.094" id="Fill-54" fill="#11121A"></path>
            <path d="M163.166,81.084 C163.162,84.211 163.273,87.334 163.473,90.447 C163.692,93.557 164.003,96.669 164.683,99.699 C164.82,100.465 165.066,101.198 165.259,101.948 C165.535,102.664 165.735,103.423 166.117,104.085 C166.798,105.455 167.728,106.737 168.591,108.024 C169.483,109.301 170.426,110.544 171.42,111.746 C172.402,112.958 173.423,114.142 174.522,115.254 C172.216,113.14 170.145,110.769 168.279,108.249 C167.354,106.978 166.447,105.71 165.712,104.292 C165.305,103.598 165.095,102.83 164.804,102.093 C164.6,101.332 164.34,100.582 164.196,99.808 C163.547,96.726 163.23,93.597 163.09,90.469 C162.957,87.339 162.979,84.206 163.166,81.084" id="Fill-55" fill="#11121A"></path>
            <path d="M161.516,79.034 C161.044,81.444 162.438,83.746 164.628,84.174 C166.817,84.602 168.975,82.996 169.446,80.585 C169.918,78.175 168.525,75.874 166.335,75.445 C164.145,75.017 161.987,76.624 161.516,79.034" id="Fill-56" fill="#BB6B4B"></path>
            <path d="M167.91,77.605 C167.91,77.605 164.714,76.882 162.413,80.549" id="Stroke-57" stroke="#A0543E"></path>
            <path d="M165.179,79.921 C164.649,91.105 157.948,99.875 152.885,99.636 C143.459,99.19 137.214,92.224 137.858,78.628 C138.387,67.443 139.581,58.412 152.477,59.022 C166.233,59.673 165.708,68.735 165.179,79.921" id="Fill-58" fill="#BB6B4B"></path>
            <path d="M149.536,73.276 C149.523,73.575 147.914,73.742 145.944,73.648 C143.975,73.555 142.39,73.237 142.404,72.939 C142.418,72.639 144.026,72.473 145.996,72.566 C147.965,72.659 149.55,72.977 149.536,73.276" id="Fill-59" fill="#1A1B2B"></path>
            <path d="M147.043,77.419 C147.003,78.254 146.401,78.904 145.697,78.871 C144.994,78.837 144.456,78.133 144.495,77.298 C144.535,76.463 145.137,75.813 145.84,75.846 C146.544,75.879 147.082,76.583 147.043,77.419" id="Fill-60" fill="#1A1B2B"></path>
            <path d="M163.149,73.92 C163.135,74.219 161.527,74.386 159.557,74.293 C157.587,74.199 156.002,73.881 156.016,73.583 C156.03,73.284 157.639,73.117 159.608,73.21 C161.578,73.303 163.163,73.621 163.149,73.92" id="Fill-61" fill="#1A1B2B"></path>
            <path d="M160.655,78.063 C160.616,78.898 160.013,79.548 159.31,79.515 C158.607,79.482 158.068,78.777 158.108,77.942 C158.148,77.107 158.75,76.457 159.453,76.49 C160.157,76.523 160.695,77.227 160.655,78.063" id="Fill-62" fill="#1A1B2B"></path>
            <path d="M154.929,83.073 C154.929,83.073 156.668,85.789 155.781,86.321 C154.894,86.854 153.94,86.76 153.94,86.76 M149.667,86.032 C149.667,86.032 150.888,85.515 151.755,86.418" id="Stroke-63" stroke="#A0543E"></path>
            <path d="M147.267,89.541 C147.267,89.541 152.808,90.474 155.924,90.04 C155.924,90.04 151.157,97.023 147.267,89.541" id="Fill-64" fill="#A0543E"></path>
            <path d="M132.997,76.65 C132.997,76.65 137.184,80.726 137.878,80.734 C138.572,80.744 137.966,77.351 138.598,76.639 C139.231,75.927 146.043,69.336 148.716,62.291 C151.011,65.367 152.826,67.107 155.172,68.211 C163.232,72.004 164.43,68.779 165.304,73.224 C165.304,73.224 167.949,65.033 163.144,58.52 C161.447,56.221 159.286,53.997 154.084,52.901 C148.746,51.778 146.078,52.34 144.843,56.158 C136.386,53.042 135.895,57.537 135.122,61.048 C133.531,68.279 132.997,76.65 132.997,76.65" id="Fill-65" fill="#1A1B2B"></path>
            <path d="M133.378,81.671 C133.378,81.671 135.403,90.852 130.897,96.696 C126.391,102.54 121.463,106.911 116.676,118.677 C111.89,130.444 113.511,139.849 125.025,148.026 C136.54,156.203 143.934,141.289 143.934,141.289 C143.934,141.289 154.198,140.563 153.887,128.434 C153.887,128.434 162.006,121.065 154.828,114.789 C147.649,108.513 140.371,110.592 138.517,83.246 L133.378,81.671" id="Fill-66" fill="#1A1B2B"></path>
            <path d="M139.413,78.699 C140.088,81.061 138.896,83.472 136.75,84.086 C134.605,84.699 132.318,83.281 131.643,80.92 C130.968,78.559 132.161,76.147 134.306,75.534 C136.452,74.921 138.738,76.338 139.413,78.699" id="Fill-67" fill="#BB6B4B"></path>
            <path d="M132.92,77.82 C132.92,77.82 136.044,76.828 138.648,80.286" id="Stroke-68" stroke="#A0543E"></path>
            <path d="M155.924,90.04 C152.808,90.474 147.267,89.541 147.267,89.541 C147.561,90.105 147.86,90.579 148.161,90.988 C149.019,91.217 150.132,91.371 151.575,91.402 C152.86,91.43 153.945,91.368 154.884,91.253 C155.532,90.612 155.924,90.04 155.924,90.04" id="Fill-69" fill="#FFFFFF"></path>
            <path d="M148.325,59.577 C148.372,60.606 148.567,61.62 148.869,62.593 C149.163,63.567 149.562,64.513 150.114,65.361 C151.152,67.102 152.759,68.447 154.576,69.302 C156.381,70.155 158.464,70.584 160.331,71.496 C161.264,71.952 162.184,72.448 163.009,73.089 C163.419,73.412 163.797,73.775 164.126,74.181 C164.44,74.59 164.724,75.066 164.74,75.59 C164.541,74.559 163.666,73.863 162.862,73.286 C162.03,72.701 161.108,72.253 160.174,71.848 C159.225,71.472 158.274,71.099 157.293,70.807 C156.803,70.656 156.316,70.513 155.819,70.332 C155.326,70.155 154.821,70.009 154.359,69.753 C152.487,68.828 150.792,67.409 149.785,65.557 C148.739,63.741 148.245,61.635 148.325,59.577" id="Fill-70" fill="#1A1B2B"></path>
            <path d="M147.856,57.098 C147.865,58.389 147.939,59.672 148.072,60.944 C148.216,62.213 148.382,63.483 148.725,64.709 C149.03,65.941 149.441,67.15 150.041,68.267 C150.645,69.379 151.43,70.388 152.412,71.235 C151.306,70.557 150.4,69.57 149.707,68.458 C149.014,67.338 148.591,66.085 148.24,64.832 C147.931,63.563 147.753,62.269 147.69,60.973 C147.635,59.677 147.659,58.377 147.856,57.098" id="Fill-71" fill="#1A1B2B"></path>
            <path d="M134.523,89.258 C133.074,92.565 131.275,95.753 128.922,98.535 C127.772,99.967 126.289,101.061 125.028,102.321 C123.739,103.574 122.541,104.918 121.432,106.33 C119.188,109.131 117.31,112.233 115.896,115.538 C114.48,118.841 113.481,122.332 112.949,125.907 C113.298,122.309 114.172,118.753 115.542,115.389 C116.214,113.702 117.037,112.076 117.965,110.514 C118.874,108.941 119.92,107.449 121.041,106.019 C122.175,104.599 123.399,103.251 124.712,101.995 C125.367,101.368 126.051,100.763 126.732,100.172 C127.398,99.579 128.043,98.959 128.634,98.284 C129.828,96.946 130.891,95.486 131.856,93.965 C132.832,92.451 133.736,90.884 134.523,89.258" id="Fill-72" fill="#1A1B2B"></path>
            <path d="M134.657,86.779 C133.689,89.82 132.296,92.737 130.495,95.395 C128.727,98.058 126.352,100.404 123.611,102.047 C122.941,102.457 122.365,103 121.756,103.496 C121.203,104.057 120.615,104.585 120.116,105.2 C119.06,106.377 118.158,107.687 117.293,109.014 C116.428,110.345 115.664,111.742 114.957,113.167 C114.241,114.587 113.575,116.038 113.016,117.532 C113.999,114.497 115.305,111.554 116.966,108.811 C117.79,107.437 118.714,106.116 119.773,104.902 C120.274,104.272 120.871,103.724 121.431,103.145 C122.053,102.628 122.638,102.066 123.33,101.634 C126.091,100.021 128.35,97.771 130.181,95.176 C132.013,92.591 133.517,89.756 134.657,86.779" id="Fill-73" fill="#1A1B2B"></path>
            <path d="M138.141,81.687 C138.483,83.963 138.922,86.22 139.405,88.462 C139.906,90.701 140.452,92.93 141.165,95.107 C141.836,97.293 142.729,99.407 143.689,101.487 C144.177,102.523 144.703,103.541 145.289,104.525 C145.867,105.51 146.483,106.49 147.287,107.315 C145.591,105.737 144.419,103.69 143.344,101.657 C142.304,99.595 141.406,97.459 140.69,95.258 C140.01,93.049 139.453,90.806 139.03,88.539 C138.61,86.272 138.301,83.984 138.141,81.687" id="Fill-74" fill="#1A1B2B"></path>
            <path d="M60.889,40.049 C61.381,39.347 69.106,40.822 75.567,42.227 C82.028,43.631 98.532,50.373 98.743,51.778 C98.954,53.183 98.041,68.844 96.145,69.546 C94.248,70.248 63.347,56.553 62.153,52.34 C60.959,48.126 60.889,40.049 60.889,40.049" id="Fill-75" fill="#394F59"></path>
            <path d="M92.984,22.141 C104.267,24.594 104.923,33.097 99.585,49.812 C94.248,66.526 92.984,75.937 89.753,78.746 C86.523,81.555 65.735,69.336 62.364,60.346 C58.993,51.357 58.01,51.919 67.982,45.878 C77.955,39.839 76.27,29.445 77.534,25.793 C78.797,22.141 89.753,21.438 92.984,22.141" id="Fill-76" fill="#B26251"></path>
            <path d="M99.709,49.417 C101.348,44.232 102.396,39.848 102.714,36.198 C102.518,33.174 101.94,29.97 101.064,26.942 C99.512,24.56 96.883,22.988 92.984,22.141 C91.379,21.792 87.869,21.791 84.586,22.324 C82.78,26.512 80.803,31.891 79.834,37.164 C79.552,41.25 79.974,45.057 81.76,47.617 C87.031,55.172 94.759,56.89 99.709,49.417" id="Fill-77" fill="#964840"></path>
            <path d="M42.042,387.856 C51.386,387.856 52.824,397.678 54.261,403.189 C55.699,408.7 56.417,412.533 54.501,413.491 C52.584,414.45 28.866,415.408 26.949,413.491 C25.032,411.575 26.001,408.05 29.949,402.984 C33.897,397.919 35.574,387.856 42.042,387.856" id="Fill-78" fill="#4C6E81"></path>
            <path d="M54.501,409.485 C52.584,410.444 28.866,411.402 26.949,409.485 C26.747,409.283 26.583,409.058 26.445,408.82 C25.714,410.865 25.885,412.426 26.949,413.491 C28.866,415.408 52.584,414.45 54.501,413.491 C55.738,412.873 55.874,411.05 55.43,408.358 C55.246,408.877 54.947,409.262 54.501,409.485" id="Fill-79" fill="#354652"></path>
            <path d="M81.707,385.028 C87.859,385.028 89.031,389.715 90.203,392.06 C91.375,394.404 93.719,398.066 103.094,402.021 C112.47,405.976 112.177,407.88 112.323,410.81 C112.47,413.741 104.12,414.62 93.719,413.741 C83.318,412.862 73.649,412.862 70.28,412.862 C66.911,412.862 72.331,392.646 74.675,389.129 C77.019,385.614 80.388,385.028 81.707,385.028" id="Fill-80" fill="#4C6E81"></path>
            <path d="M93.719,409.185 C83.318,408.306 73.649,408.306 70.28,408.306 C69.862,408.306 69.58,407.994 69.41,407.441 C69.012,410.589 69.152,412.862 70.28,412.862 C73.649,412.862 83.318,412.862 93.719,413.741 C104.12,414.62 112.47,413.741 112.323,410.81 C112.264,409.625 112.276,408.607 111.69,407.553 C109.59,409.425 102.374,409.917 93.719,409.185" id="Fill-81" fill="#354652"></path>
            <path d="M72.895,148.928 C95.471,147.517 101.17,156.154 99.914,175.947 C98.657,195.74 95.201,272.869 94.729,278.052 C94.258,283.237 91.431,284.886 90.488,300.909 C89.546,316.931 92.138,395.16 92.138,395.16 C92.138,395.16 81.77,390.919 75.408,398.459 C69.046,406 69.989,405.763 69.989,405.763 C69.989,405.763 51.845,319.523 56.872,281.823 C61.898,244.123 53.416,178.146 53.416,168.093 C53.416,158.039 67.868,149.242 72.895,148.928" id="Fill-82" fill="#1A1B2B"></path>
            <path d="M75.625,211.035 C69.246,209.616 62.918,207.906 56.483,206.857 C58.272,230.885 59.68,260.764 56.872,281.823 C54.902,296.598 56.491,318.826 59.151,340.396 C59.879,337.643 60.632,334.897 61.392,332.153 C64.25,321.839 77.146,220.261 75.625,211.035" id="Fill-83" fill="#11121A"></path>
            <path d="M48.344,149.716 C70.964,149.821 76.072,158.82 73.492,178.484 C70.912,198.149 67.475,261.051 66.657,266.192 C65.839,271.333 63.284,286.634 61.271,302.558 C59.256,318.482 53.887,401.679 53.887,401.679 C53.887,401.679 49.91,396.094 40.457,395.474 C35.665,395.16 29.932,402.229 29.932,402.229 C29.932,402.229 24.999,322.673 25.926,284.65 C26.321,268.45 21.799,249.217 21.999,229.042 C22.016,227.359 19.469,218.765 19.485,217.103 C19.737,191.17 27.258,173.007 27.626,167.532 C28.299,157.502 43.308,149.693 48.344,149.716" id="Fill-84" fill="#1A1B2B"></path>
            <path d="M72.895,148.928 C71.026,149.045 67.854,150.336 64.606,152.426 C60.669,150.636 55.348,149.749 48.344,149.716 C43.308,149.693 28.299,157.502 27.626,167.532 C27.398,170.914 27.238,180.939 27.09,194.217 C36.465,194.883 46.055,195.365 55.544,195.03 L55.544,195.035 C57.31,194.973 59.072,194.879 60.83,194.755 C60.84,194.755 60.851,194.754 60.861,194.753 C61.713,194.693 62.563,194.624 63.412,194.548 C63.507,194.539 63.604,194.532 63.7,194.524 C64.468,194.453 65.235,194.373 66.001,194.289 C66.18,194.269 66.359,194.252 66.538,194.232 C67.228,194.153 67.916,194.064 68.604,193.973 C68.859,193.94 69.115,193.909 69.37,193.873 C69.986,193.788 70.599,193.692 71.213,193.597 C71.464,193.558 71.718,193.524 71.969,193.483 C71.97,193.482 71.97,193.481 71.97,193.479 C81.544,191.917 90.815,189.082 99.433,184.258 C99.614,180.922 99.777,178.096 99.914,175.947 C101.17,156.154 95.471,147.517 72.895,148.928" id="Fill-85" fill="#11121A"></path>
            <path d="M37.222,104.872 C36.426,117.201 31.76,164.868 29.102,181.916 C29.102,181.916 37.393,188.218 67.868,188.218 C94.887,188.218 101.792,181.916 101.792,181.916 C100.555,172.827 99.777,144.446 101.131,132.261 C104.08,105.714 119.25,96.022 118.829,79.168 C118.407,62.313 97.338,57.215 97.338,57.215 C97.338,57.215 93.967,69.476 79.079,66.667 C64.19,63.857 59.555,49.25 59.555,49.25 C59.555,49.25 57.869,51.357 43.121,55.008 C28.373,58.66 38.345,87.455 37.222,104.872" id="Fill-86" fill="#AC4153"></path>
            <path d="M29.102,181.916 C29.102,181.916 36.544,187.559 63.187,188.162 C63.271,185.641 63.311,183.12 63.32,180.606 C63.34,174.994 62.934,169.374 63.201,163.765 C63.452,158.506 64.745,153.636 66.682,148.753 C68.619,143.871 71.009,139.169 72.6,134.154 C74.17,129.205 75.098,124.088 75.537,118.919 C76.425,108.457 76.074,97.725 75.819,87.237 C75.678,81.396 75.364,75.475 73.763,69.829 C73.23,67.951 72.649,66.089 72.128,64.217 C62.704,59.151 59.555,49.25 59.555,49.25 C59.555,49.25 57.869,51.357 43.121,55.008 C28.373,58.66 38.345,87.455 37.222,104.872 C36.426,117.201 31.76,164.868 29.102,181.916" id="Fill-87" fill="#A23D50"></path>
            <path d="M86.561,401.483 C86.614,400.525 87.08,399.597 87.744,398.865 C88.408,398.117 89.305,397.599 90.239,397.282 C91.182,396.954 92.171,396.903 93.13,396.93 C93.608,396.978 94.083,397.044 94.548,397.131 C95.009,397.26 95.466,397.386 95.908,397.556 C95.429,397.605 94.965,397.612 94.505,397.621 L93.142,397.711 C92.253,397.84 91.366,397.926 90.553,398.231 C88.907,398.752 87.47,399.819 86.561,401.483" id="Fill-88" fill="#354652"></path>
            <path d="M90.842,403.715 C90.951,402.847 91.381,402.028 91.97,401.355 C92.555,400.67 93.331,400.153 94.165,399.802 C95.016,399.491 95.912,399.337 96.795,399.37 C97.235,399.372 97.669,399.464 98.097,399.523 C98.519,399.638 98.934,399.761 99.334,399.921 C98.897,399.98 98.477,399.99 98.062,400.013 C97.647,400.071 97.236,400.086 96.836,400.149 C96.034,400.272 95.263,400.45 94.533,400.731 C93.087,401.315 91.825,402.3 90.842,403.715" id="Fill-89" fill="#354652"></path>
            <path d="M95.947,405.875 C96.008,405.032 96.41,404.222 96.98,403.568 C97.549,402.9 98.316,402.414 99.131,402.099 C99.957,401.796 100.829,401.709 101.676,401.738 C102.099,401.761 102.516,401.841 102.926,401.909 C103.331,402.029 103.731,402.147 104.115,402.307 C103.694,402.366 103.289,402.38 102.887,402.398 L101.703,402.518 C100.933,402.644 100.175,402.762 99.476,403.038 C98.072,403.551 96.851,404.477 95.947,405.875" id="Fill-90" fill="#354652"></path>
            <path d="M35.194,399.166 C35.962,398.475 36.889,397.976 37.861,397.61 C38.836,397.242 39.88,397.045 40.935,397.004 C41.99,396.968 43.06,397.134 44.046,397.507 C45.048,397.838 45.924,398.464 46.661,399.166 C45.689,398.809 44.79,398.425 43.827,398.256 C42.881,398.061 41.924,397.954 40.963,398.003 C39.036,398.049 37.13,398.514 35.194,399.166" id="Fill-91" fill="#354652"></path>
            <path d="M34.251,402.692 C35.175,401.911 36.27,401.344 37.413,400.926 C38.561,400.506 39.783,400.281 41.018,400.236 C42.251,400.191 43.502,400.381 44.66,400.805 C45.837,401.181 46.871,401.897 47.761,402.692 C46.637,402.242 45.579,401.768 44.441,401.554 C43.323,401.308 42.186,401.176 41.045,401.234 C38.759,401.292 36.499,401.863 34.251,402.692" id="Fill-92" fill="#354652"></path>
            <path d="M24.63,146.572 C24.415,151.455 15.992,185.493 14.027,192.52 C14.027,192.52 36.192,193.78 36.942,192.52 C51.479,168.08 65.524,116.67 69.738,97.919 C73.952,79.168 72.547,67.86 72.477,62.593 C72.407,57.326 71.564,57.607 67.912,51.637 C64.26,45.668 61.1,39.716 61.1,39.716 C61.1,39.716 57.202,47.143 56.57,47.775 C55.938,48.407 43.472,51.146 33.359,55.57 C23.246,59.995 25.353,67.158 25.774,74.532 C26.196,81.906 25.262,132.245 24.63,146.572" id="Fill-93" fill="#4C6E81"></path>
            <path d="M72.477,62.593 C72.407,57.326 71.564,57.607 67.912,51.637 C64.26,45.668 61.1,39.716 61.1,39.716 L56.043,45.247 C56.043,45.247 61.311,57.888 64.471,65.051 C64.471,65.051 69,56.448 70.229,57.045 C71.458,57.642 72.477,62.593 72.477,62.593" id="Fill-94" fill="#425F6C"></path>
            <path d="M78.853,32.517 C78.853,35.447 76.616,37.823 73.856,37.823 C71.097,37.823 68.86,35.447 68.86,32.517 C68.86,29.587 71.097,27.212 73.856,27.212 C76.616,27.212 78.853,29.587 78.853,32.517" id="Fill-95" fill="#B26251"></path>
            <path d="M71.054,29.836 C71.054,29.836 74.405,28.435 76.538,32.944" id="Stroke-96" stroke="#964840"></path>
            <path d="M101.672,32.517 C101.672,35.447 103.909,37.823 106.669,37.823 C109.428,37.823 111.665,35.447 111.665,32.517 C111.665,29.587 109.428,27.212 106.669,27.212 C103.909,27.212 101.672,29.587 101.672,32.517" id="Fill-97" fill="#B26251"></path>
            <path d="M109.472,29.836 C109.472,29.836 106.12,28.435 103.988,32.944" id="Stroke-98" stroke="#964840"></path>
            <path d="M104.993,28.999 C104.993,41.391 98.323,51.437 90.095,51.437 C81.867,51.437 75.197,41.391 75.197,28.999 C75.197,16.606 74.648,6.56 90.095,6.56 C108.101,6.56 104.993,16.606 104.993,28.999" id="Fill-99" fill="#B26251"></path>
            <path d="M87.658,20.422 C87.658,20.91 85.612,21.306 83.088,21.306 C80.564,21.306 78.518,20.91 78.518,20.422 C78.518,19.934 80.564,19.539 83.088,19.539 C85.612,19.539 87.658,19.934 87.658,20.422" id="Fill-100" fill="#1A1B2C"></path>
            <path d="M84.337,26.211 C84.337,27.204 83.778,28.008 83.088,28.008 C82.398,28.008 81.839,27.204 81.839,26.211 C81.839,25.218 82.398,24.413 83.088,24.413 C83.778,24.413 84.337,25.218 84.337,26.211" id="Fill-101" fill="#1A1B2C"></path>
            <path d="M102.434,20.422 C102.434,20.91 100.388,21.306 97.864,21.306 C95.34,21.306 93.294,20.91 93.294,20.422 C93.294,19.934 95.34,19.539 97.864,19.539 C100.388,19.539 102.434,19.934 102.434,20.422" id="Fill-102" fill="#1A1B2C"></path>
            <path d="M99.113,26.211 C99.113,27.204 98.554,28.008 97.864,28.008 C97.174,28.008 96.615,27.204 96.615,26.211 C96.615,25.218 97.174,24.413 97.864,24.413 C98.554,24.413 99.113,25.218 99.113,26.211" id="Fill-103" fill="#1A1B2C"></path>
            <path d="M87.993,31.238 C87.993,31.238 85.19,34.894 89.76,35.016 M92.258,34.772 L93.842,34.772" id="Stroke-104" stroke="#964840"></path>
            <path d="M84.47,39.016 C84.47,39.016 90.898,40.277 94,40.685 C94,40.685 88.876,46.506 84.47,39.016" id="Fill-105" fill="#964840"></path>
            <path d="M102.86,13.141 C102.149,11.244 102.86,8.571 105.603,10.216 C108.344,11.861 106.699,28.13 106.699,28.13 L104.14,28.678 C104.14,28.678 103.226,14.116 102.86,13.141" id="Fill-106" fill="#1A1B2C"></path>
            <g id="Group-112">
                <mask id="mask-2" fill="white">
                    <use xlink:href="#path-1"></use>
                </mask>
                <g id="Clip-108"></g>
                <path d="M75.928,11.953 C78.188,12.945 79.31,11.678 78.213,15.426 C77.116,19.173 76.065,28.815 76.065,28.815 L73.643,27.856 C73.643,27.856 72.912,10.628 75.928,11.953" id="Fill-107" fill="#1A1B2C" mask="url(#mask-2)"></path>
                <path d="M103.774,9.729 C103.774,9.729 101.032,11.983 97.438,11.617 C93.842,11.252 92.624,13.568 90.369,13.568 C88.115,13.568 83.789,11.069 82.813,11.557 C81.839,12.044 75.624,14.359 74.893,13.445 C74.161,12.531 74.709,9.972 74.709,9.972 C74.709,9.972 74.832,6.499 76.842,5.585 C78.853,4.671 79.828,2.539 81.899,1.686 C83.971,0.833 86.47,-0.143 91.04,0.04 C95.609,0.223 106.882,2.234 103.774,9.729" id="Fill-109" fill="#1A1B2C" mask="url(#mask-2)"></path>
                <path d="M94,40.685 C90.898,40.277 84.47,39.016 84.47,39.016 C84.891,39.731 85.318,40.323 85.746,40.812 C86.349,41.049 87.053,41.237 87.891,41.353 C89.844,41.622 91.483,41.71 92.844,41.689 C93.565,41.176 94,40.685 94,40.685" id="Fill-110" fill="#FFFFFF" mask="url(#mask-2)"></path>
                <path d="M43.991,193.227 C40.457,185.746 27.144,145.861 27.654,134.476 C27.654,134.476 34.834,98.13 45.158,85.277 C55.481,72.425 39.469,53.674 35.677,54.833 C27.369,57.371 25.774,58.099 20.718,68.633 C15.661,79.168 0.949,119.71 0.007,132.277 C-0.277,136.066 8.285,180.011 21.685,200.767 L43.991,193.227" id="Fill-111" fill="#4C6E81" mask="url(#mask-2)"></path>
            </g>
            <path d="M98.866,52.779 C98.866,52.779 96.917,58.309 98.971,64.999 C101.025,71.688 102.5,83.486 102.5,83.486 C102.5,83.486 103.554,59.31 101.605,56.624 C99.656,53.938 98.866,52.779 98.866,52.779" id="Fill-113" fill="#425F6C"></path>
            <path d="M98.708,52.621 C98.708,52.621 101.447,55.149 101.657,57.466 C101.868,59.784 101.552,76.007 102.816,85.91 C104.08,95.812 105.661,102.132 104.502,107.189 C103.343,112.246 97.865,125.414 98.286,132.683 C98.708,139.951 100.856,156.94 100.856,156.94 C100.856,156.94 102.395,130.47 102.5,127.732 C102.606,124.992 118.091,94.548 119.776,85.172 C121.462,75.797 122.937,66.315 116.406,61.575 C109.874,56.835 101.394,55.255 98.708,52.621" id="Fill-114" fill="#4C6E81"></path>
            <path d="M43.539,173.916 C43.418,167.878 41.748,162.555 39.743,156.914 C37.941,151.846 36.419,146.764 36.493,141.334 C36.561,136.294 37.855,131.392 39.52,126.665 C41.295,121.619 39.315,106.818 41.163,101.802 C43.008,96.797 29.639,76.61 25.539,64.369 C24.988,67.524 25.573,71.003 25.774,74.532 C26.196,81.906 25.262,132.245 24.63,146.572 C24.415,151.455 15.992,185.493 14.027,192.52 C14.027,192.52 36.192,193.78 36.942,192.52 C39.224,188.683 41.494,184.181 43.715,179.246 C43.594,177.468 43.574,175.676 43.539,173.916" id="Fill-115" fill="#425F6C"></path>
            <path d="M28.911,187.571 C36.988,187.571 39.436,189.456 43.206,195.426 C46.976,201.395 50.981,206.029 50.431,211.998 C50.199,214.521 46.19,205.165 42.734,205.165 C39.278,205.165 47.447,229.042 45.876,230.298 C44.305,231.555 34.88,228.414 31.11,226.529 C27.34,224.643 25.769,202.651 24.826,197.311 C23.884,191.97 25.141,187.571 28.911,187.571" id="Fill-116" fill="#B26251"></path>
            <path d="M24.512,222.209 C24.512,222.209 34.526,218.203 42.891,206.304 C42.891,206.304 50.078,231.045 49.018,233.873 C47.957,236.7 31.817,244.123 29.107,243.886 C26.397,243.651 24.512,222.209 24.512,222.209" id="Fill-117" fill="#1A1B2B"></path>
            <path d="M24.684,222.637 L24.341,221.781 C24.44,221.741 34.333,217.675 42.514,206.038 L43.269,206.569 C34.922,218.443 24.785,222.596 24.684,222.637" id="Fill-118" fill="#11121A"></path>
            <path d="M289.987,395.396 C293.129,399.323 292.344,401.994 292.344,408.12 C292.344,414.246 294.543,414.717 285.746,414.717 L263.282,414.717 C254.643,414.717 257.784,407.805 262.183,406.235 C266.581,404.664 271.451,404.664 272.394,400.894 C273.336,397.124 289.987,395.396 289.987,395.396" id="Fill-119" fill="#1A1B2B"></path>
            <path d="M266.801,41.757 C267.359,41.404 268.004,42.37 268.501,41.723 C268.731,41.423 267.911,40.124 268.259,39.766 C268.543,39.475 269.856,40.253 270.222,39.954 C270.546,39.69 270.047,38.242 270.438,37.994 C270.794,37.768 271.888,38.833 272.303,38.634 C272.685,38.452 272.541,36.928 272.974,36.781 C273.376,36.645 274.19,37.938 274.638,37.842 C275.053,37.753 275.261,36.237 275.717,36.191 C276.14,36.148 276.654,37.588 277.113,37.588 C277.694,37.588 278.189,36.1 278.714,36.059 C279.294,36.014 280.008,37.403 280.527,37.325 C281.103,37.238 281.388,35.692 281.901,35.587 C282.474,35.469 283.315,36.781 283.826,36.671 C284.398,36.547 284.682,34.996 285.199,34.924 C285.772,34.845 286.359,36.268 286.894,36.31 C287.434,36.352 288.309,35.067 288.841,35.297 C289.303,35.495 289.02,37.021 289.498,37.404 C289.886,37.715 291.286,37.03 291.697,37.487 C292.172,38.014 291.51,39.481 291.922,39.961 C292.379,40.492 293.929,40.061 294.334,40.56 C294.764,41.088 294.023,42.516 294.426,43.041 C294.827,43.563 296.395,43.21 296.8,43.76 C297.181,44.276 296.386,45.676 296.796,46.244 C297.165,46.755 298.74,46.434 299.153,47.006 C299.522,47.518 298.723,48.916 299.139,49.491 C299.51,50.002 301.086,49.677 301.505,50.249 C301.879,50.76 301.094,52.167 301.514,52.734 C302.189,53.645 304.071,53.929 304.696,55.105 C305.246,56.14 304.463,57.903 304.985,59.085 C305.47,60.181 307.297,60.76 307.766,61.936 C308.217,63.067 307.297,64.759 307.741,65.923 C308.182,67.079 309.99,67.717 310.43,68.866 C310.878,70.038 309.965,71.733 310.42,72.857 C310.898,74.039 312.731,74.603 313.225,75.685 C313.769,76.873 313.021,78.654 313.593,79.66 C314.266,80.84 316.15,81.026 316.881,81.858 C317.211,82.235 316.388,83.537 316.666,83.891 C316.98,84.29 318.443,83.808 318.694,84.178 C318.982,84.6 317.98,85.77 318.193,86.158 C318.44,86.609 319.968,86.42 320.127,86.83 C320.314,87.312 319.039,88.167 319.119,88.597 C319.215,89.103 320.694,89.482 320.668,89.925 C320.639,90.424 319.114,90.615 318.972,91.047 C318.819,91.51 319.945,92.534 319.713,92.938 C319.472,93.357 317.971,92.956 317.7,93.332 C317.427,93.711 317.889,95.102 317.353,95.335 C316.925,95.52 315.969,94.282 315.419,94.41 C314.946,94.519 314.722,96.051 314.186,96.139 C313.694,96.22 312.954,94.847 312.431,94.926 C311.929,95.001 311.647,96.527 311.132,96.614 C310.623,96.7 309.834,95.355 309.33,95.466 C308.82,95.577 308.69,97.122 308.201,97.272 C307.698,97.426 306.692,96.236 306.232,96.446 C305.752,96.664 306.03,98.181 305.618,98.475 C305.207,98.768 303.945,97.863 303.513,98.158 C303.089,98.446 303.455,99.959 303.016,100.232 C302.574,100.507 301.393,99.501 300.943,99.743 C300.481,99.993 300.649,101.541 300.185,101.739 C299.696,101.947 298.73,100.739 298.247,100.87 C297.732,101.01 297.455,102.54 296.956,102.567 C296.431,102.596 296.056,101.113 295.56,100.988 C295.072,100.866 294.015,101.982 293.567,101.682 C293.168,101.414 293.759,99.992 293.4,99.562 C292.988,99.068 291.398,99.333 291.007,98.685 C290.663,98.114 291.61,96.785 291.279,96.13 C290.974,95.522 289.351,95.519 289.053,94.864 C288.767,94.234 289.824,92.995 289.544,92.345 C289.265,91.699 285.045,92.34 284.771,91.698 C284.489,91.042 285.555,89.808 285.275,89.179 C284.982,88.515 283.357,88.491 283.063,87.884 C282.736,87.214 286.297,85.185 285.967,84.622 C285.571,83.949 283.991,84.223 283.584,83.764 C283.339,83.487 284.086,82.18 283.8,81.943 C283.516,81.708 282.354,82.675 282.04,82.476 C281.728,82.278 282.123,80.822 281.792,80.656 C281.458,80.49 280.519,81.676 280.178,81.541 C279.827,81.401 279.972,79.897 279.626,79.787 C279.26,79.67 278.497,80.978 278.151,80.89 C277.77,80.793 277.727,79.283 277.389,79.216 C276.981,79.136 276.365,80.521 276.05,80.476 C275.373,80.379 275.041,78.709 274.605,79.048 C274.197,79.364 275.339,80.477 275.033,80.892 C274.726,81.308 273.546,80.437 273.239,80.853 C272.934,81.268 274.113,82.138 273.807,82.554 C273.501,82.969 272.32,82.099 272.014,82.515 C271.707,82.931 272.887,83.801 272.58,84.217 C272.273,84.633 271.094,83.763 270.787,84.178 C270.481,84.594 271.66,85.464 271.354,85.881 C271.045,86.298 269.865,85.428 269.558,85.845 C269.25,86.263 270.427,87.04 270.164,87.487 C269.69,88.292 268.603,87.465 268.101,88.493 C267.864,88.978 268.879,90.216 268.544,90.826 C268.264,91.338 266.684,91.144 266.34,91.702 C266.023,92.215 266.902,93.548 266.535,94.069 C266.18,94.573 264.637,94.185 264.238,94.668 C263.84,95.151 264.501,96.605 264.063,97.039 C263.612,97.485 262.187,96.791 261.697,97.156 C261.186,97.539 261.406,99.118 260.857,99.378 C260.284,99.65 259.259,98.459 258.649,98.559 C257.954,98.673 257.404,100.204 256.698,100.239 C255.992,100.273 255.297,98.804 254.593,98.756 C253.886,98.709 252.996,100.071 252.305,99.939 C251.607,99.805 251.292,98.212 250.624,97.99 C249.951,97.765 248.734,98.844 248.107,98.527 C247.475,98.208 247.632,96.594 247.06,96.178 C246.491,95.765 244.998,96.407 244.503,95.896 C244.018,95.395 244.706,93.928 244.305,93.331 C243.919,92.759 242.298,92.851 242.001,92.188 C241.664,91.436 242.845,90.221 242.728,89.357 C242.619,88.551 241.137,87.764 241.183,86.891 C241.225,86.072 242.782,85.393 242.929,84.54 C243.07,83.723 241.819,82.589 242.029,81.762 C242.236,80.946 243.882,80.528 244.131,79.723 C244.383,78.905 243.257,77.644 243.527,76.857 C243.81,76.033 245.48,75.715 245.751,74.949 C246.052,74.105 244.949,72.825 245.197,72.082 C245.499,71.179 247.157,70.756 247.316,70.056 C247.428,69.563 246.031,68.959 246.036,68.571 C246.044,68.07 247.406,67.438 247.289,67.059 C247.151,66.615 245.617,66.825 245.398,66.455 C245.177,66.08 246.221,65.009 246.015,64.607 C245.826,64.24 244.295,64.319 244.199,63.847 C244.121,63.464 245.537,62.929 245.565,62.429 C245.588,62.039 244.201,61.405 244.31,60.922 C244.398,60.533 245.927,60.505 246.081,60.043 C246.21,59.657 244.992,58.732 245.175,58.289 C245.429,57.672 247.026,57.635 247.255,57.068 C247.505,56.449 246.384,55.307 246.612,54.743 C246.864,54.122 248.46,54.099 248.699,53.541 C248.964,52.923 247.892,51.734 248.158,51.187 C248.45,50.586 250.035,50.726 250.351,50.203 C250.69,49.641 249.856,48.278 250.25,47.795 C250.652,47.303 252.137,47.87 252.627,47.449 C253.093,47.05 252.749,45.496 253.32,45.151 C253.836,44.84 255.073,45.849 255.694,45.575 C256.107,45.393 255.972,43.866 256.391,43.71 C256.815,43.55 257.722,44.789 258.146,44.654 C258.58,44.515 258.601,42.982 259.028,42.867 C259.472,42.748 260.262,44.063 260.69,43.966 C261.142,43.864 261.287,42.338 261.714,42.258 C262.177,42.172 262.865,43.544 263.288,43.48 C263.765,43.409 264.021,41.898 264.432,41.85 C264.938,41.792 265.528,43.21 265.908,43.181 C266.75,43.115 266.233,42.115 266.801,41.757" id="Fill-120" fill="#1F1214"></path>
            <path d="M276.593,66.386 C287.61,67.222 285.07,73.97 286.281,88.297 C287.492,102.624 289.779,107.821 276.593,107.821 C263.407,107.821 266.905,100.658 267.309,88.297 C267.713,75.937 269.192,65.824 276.593,66.386" id="Fill-121" fill="#7F3E3B"></path>
            <path d="M276.593,66.386 C272.654,66.086 270.393,68.812 269.078,73.291 C269.451,81.402 271.657,89.496 279.058,89.07 C281.799,88.912 284.148,88.016 286.156,86.639 C285.251,73.451 287.176,67.189 276.593,66.386" id="Fill-122" fill="#612B2A"></path>
            <path d="M286.531,240.824 C299.799,241.112 300.669,268.157 299.255,282.765 C297.842,297.375 304.44,311.512 303.968,334.132 C303.496,356.752 293.247,395.278 291.833,398.577 C290.419,401.876 274.632,401.934 272.275,401.463 C268.82,373.581 266.409,345.085 261.083,313.397 C256.371,285.357 256.842,276.168 257.784,261.087 C258.728,246.007 264.854,240.352 286.531,240.824" id="Fill-123" fill="#7F3E3B"></path>
            <path d="M265.215,285.645 C267.628,286.242 270.098,286.072 272.564,286.019 C275.445,285.958 278.328,285.851 281.212,285.841 C293.365,285.799 297.949,297.405 300.499,307.52 C301.488,311.443 302.508,315.469 303.318,319.503 C301.775,304.863 298.173,293.945 299.255,282.765 C300.669,268.157 299.799,241.112 286.531,240.824 C264.854,240.352 258.728,246.007 257.784,261.087 C257.292,268.961 256.931,275.233 257.366,283.417 C260.027,283.816 262.629,285.007 265.215,285.645" id="Fill-124" fill="#612B2A"></path>
            <path d="M277.42,151.128 C297.19,152.069 298.47,151.441 305.067,176.89 C311.665,202.337 315.749,209.564 310.094,239.724 C304.44,269.884 303.811,278.367 303.811,278.367 C303.811,278.367 291.244,282.451 276.164,282.451 C261.083,282.451 256.371,281.823 256.371,281.823 C256.371,281.823 252.915,264.858 250.087,231.87 C247.26,198.881 249.459,181.288 253.857,165.894 C258.256,150.499 270.822,150.813 277.42,151.128" id="Fill-125" fill="#AC4153"></path>
            <path d="M276.062,175.468 C281.982,175.772 288.449,176.901 293.251,180.628 C298.707,184.862 302.91,191.745 306.039,197.795 C308.892,203.311 311.015,209.108 312.766,215.033 C312.636,202.421 309.392,193.569 305.067,176.89 C298.47,151.441 297.19,152.069 277.42,151.128 C270.822,150.813 258.256,150.499 253.857,165.894 C253.206,168.173 252.605,170.503 252.059,172.922 C260.093,173.14 268.032,175.057 276.062,175.468" id="Fill-126" fill="#A23D50"></path>
            <path d="M310.134,99.394 C308.135,94.378 289.629,90.632 289.328,90.548 C289.31,90.553 289.266,90.563 289.189,90.579 C286.232,91.422 281.466,91.73 278.021,91.758 C274.574,91.73 269.808,91.422 266.852,90.579 C266.774,90.563 266.731,90.553 266.712,90.548 C266.411,90.632 254.264,91.849 252.265,96.865 C248.402,106.557 251.165,116.349 249.487,123.096 C247.907,129.452 246.148,135.948 250.015,142.058 C253.88,148.168 251.806,167.446 251.806,167.446 C251.806,167.446 266.268,172.727 280.405,172.727 C291.244,172.727 304.234,167.446 304.234,167.446 C304.234,167.446 302.16,148.168 306.025,142.058 C309.892,135.948 308.133,129.452 306.553,123.096 C304.875,116.349 313.997,109.086 310.134,99.394" id="Fill-127" fill="#CAA49D"></path>
            <path d="M272.564,286.019 C272.564,286.019 278.991,303.501 280.248,332.09 C281.505,360.68 277.734,400.265 277.734,400.265 C277.734,400.265 278.991,370.419 278.991,342.772 C278.991,315.125 272.564,286.019 272.564,286.019" id="Fill-128" fill="#612B2A"></path>
            <polyline id="Fill-129" fill="#F2AF8F" points="268.851 111.333 262.097 118.086 255.344 111.333 262.097 104.579 268.851 111.333"></polyline>
            <polyline id="Fill-130" fill="#F2AF8F" points="284.723 111.333 277.969 118.086 271.215 111.333 277.969 104.579 284.723 111.333"></polyline>
            <polyline id="Fill-131" fill="#F2AF8F" points="300.595 111.333 293.841 118.086 287.087 111.333 293.841 104.579 300.595 111.333"></polyline>
            <path d="M266.755,70.643 C266.755,72.71 265.079,74.386 263.012,74.386 C260.943,74.386 259.268,72.71 259.268,70.643 C259.268,68.575 260.943,66.898 263.012,66.898 C265.079,66.898 266.755,68.575 266.755,70.643" id="Fill-132" fill="#7F3E3B"></path>
            <path d="M260.827,68.896 C260.827,68.896 264.197,68.958 265.383,70.643" id="Stroke-133" stroke="#612B2A"></path>
            <path d="M286.395,70.643 C286.395,72.71 288.07,74.386 290.139,74.386 C292.206,74.386 293.882,72.71 293.882,70.643 C293.882,68.575 292.206,66.898 290.139,66.898 C288.07,66.898 286.395,68.575 286.395,70.643" id="Fill-134" fill="#7F3E3B"></path>
            <path d="M292.322,68.896 C292.322,68.896 288.953,68.958 287.768,70.643" id="Stroke-135" stroke="#612B2A"></path>
            <path d="M289.218,67.834 C289.218,78.586 283.533,87.302 276.521,87.302 C269.508,87.302 263.822,78.586 263.822,67.834 C263.822,57.083 262.513,48.367 276.521,48.367 C289.655,48.367 289.218,57.083 289.218,67.834" id="Fill-136" fill="#7F3E3B"></path>
            <path d="M273.213,61.735 C273.213,62.071 271.774,62.344 270,62.344 C268.226,62.344 266.786,62.071 266.786,61.735 C266.786,61.399 268.226,61.127 270,61.127 C271.774,61.127 273.213,61.399 273.213,61.735" id="Fill-137" fill="#1F1214"></path>
            <path d="M271.076,65.947 C271.076,66.697 270.595,67.304 270,67.304 C269.405,67.304 268.924,66.697 268.924,65.947 C268.924,65.198 269.405,64.59 270,64.59 C270.595,64.59 271.076,65.198 271.076,65.947" id="Fill-138" fill="#1F1214"></path>
            <path d="M285.716,61.735 C285.716,62.071 284.277,62.344 282.503,62.344 C280.728,62.344 279.289,62.071 279.289,61.735 C279.289,61.399 280.728,61.127 282.503,61.127 C284.277,61.127 285.716,61.399 285.716,61.735" id="Fill-139" fill="#1F1214"></path>
            <path d="M283.579,65.947 C283.579,66.697 283.097,67.304 282.503,67.304 C281.908,67.304 281.426,66.697 281.426,65.947 C281.426,65.198 281.908,64.59 282.503,64.59 C283.097,64.59 283.579,65.198 283.579,65.947" id="Fill-140" fill="#1F1214"></path>
            <path d="M278.481,72 C278.592,72 279.477,73.729 278.776,74.051 C278.075,74.372 277.596,74.211 276.968,74.573 M273.463,73.809 C273.463,73.809 274.274,73.93 274.865,74.332" id="Stroke-141" stroke="#612B2A"></path>
            <path d="M271.544,77.849 C271.544,77.849 276.599,78.691 280.576,77.475 C280.576,77.475 276.505,83.886 271.544,77.849" id="Fill-142" fill="#612B2A"></path>
            <path d="M271.798,48.573 C272.303,48.582 271.145,49.889 271.298,50.475 C271.372,50.761 272.872,50.679 272.988,51.03 C273.088,51.336 271.832,52.167 271.965,52.488 C272.094,52.797 273.559,52.47 273.72,52.764 C273.887,53.067 272.854,54.163 273.057,54.419 C273.275,54.695 274.512,53.88 274.775,54.065 C275.058,54.263 274.838,55.723 275.173,55.773 C275.637,55.84 276.363,54.465 276.878,54.556 C277.346,54.64 277.524,56.172 278.025,56.298 C278.488,56.416 279.393,55.156 279.877,55.331 C280.327,55.492 280.218,57.031 280.681,57.257 C281.11,57.466 282.257,56.426 282.694,56.702 C283.097,56.957 282.656,58.437 283.063,58.758 C283.436,59.054 284.773,58.277 285.148,58.637 C285.444,58.923 284.837,60.305 285.144,60.507 C285.486,60.732 286.502,59.613 286.848,59.748 C287.226,59.896 287.218,61.4 287.587,61.46 C287.985,61.524 288.466,60.086 288.839,60.072 C289.247,60.058 289.813,61.454 290.171,61.38 C290.593,61.291 290.566,59.768 290.885,59.65 C291.535,59.408 292.977,60.354 292.918,59.777 C292.849,59.092 291.241,59.514 290.966,58.882 C290.69,58.25 292.033,57.664 291.758,57.031 C291.482,56.398 290.138,56.985 289.861,56.353 C289.585,55.721 290.929,55.134 290.653,54.502 C290.377,53.869 289.033,54.456 288.756,53.822 C288.48,53.188 289.823,52.601 289.546,51.966 C289.27,51.332 288.187,51.99 287.751,51.453 C286.971,50.491 287.792,49.863 286.455,49.191 C285.809,48.866 284.411,49.814 283.584,49.427 C282.871,49.094 282.706,47.411 281.918,47.074 C281.164,46.752 279.844,47.799 279.069,47.509 C278.274,47.212 277.946,45.551 277.182,45.325 C276.328,45.073 275.192,46.306 274.444,46.192 C273.481,46.047 272.542,44.609 271.895,44.795 C271.388,44.941 271.299,46.503 270.778,46.672 C270.269,46.836 269.284,45.623 268.775,45.804 C268.264,45.986 268.267,47.549 267.771,47.742 C267.256,47.941 266.203,46.786 265.722,46.99 C265.201,47.21 265.303,48.769 264.842,48.986 C264.308,49.236 263.155,48.176 262.732,48.41 C262.147,48.732 262.517,50.228 262.219,50.485 C261.925,50.738 260.476,50.856 260.284,51.968 C260.169,52.636 261.526,53.605 261.454,54.452 C261.392,55.185 259.882,55.877 259.855,56.673 C259.827,57.44 261.283,58.24 261.292,59.007 C261.301,59.805 259.864,60.644 259.913,61.379 C259.971,62.225 261.51,62.836 261.625,63.507 C261.806,64.563 260.84,66.003 261.179,66.317 C261.475,66.591 262.425,65.506 262.681,65.57 C263.014,65.653 263.624,66.822 263.893,66.582 C264.095,66.401 263.132,65.265 263.301,64.92 C263.428,64.662 264.902,64.903 265.012,64.561 C265.103,64.274 263.775,63.57 263.855,63.23 C263.924,62.93 265.425,62.908 265.486,62.57 C265.542,62.263 264.148,61.705 264.196,61.368 C264.289,60.727 265.852,60.317 266.012,59.617 C266.16,58.97 264.93,57.912 265.15,57.241 C265.36,56.603 266.971,56.491 267.258,55.854 C267.536,55.238 266.56,53.944 266.922,53.35 C267.274,52.773 268.861,53.056 269.303,52.516 C269.731,51.995 269.144,50.486 269.664,50.017 C270.161,49.569 271.207,48.96 271.798,48.573" id="Fill-143" fill="#1F1214"></path>
            <path d="M271.983,49.268 C271.754,49.664 271.393,49.966 271.155,50.35 C271.056,50.522 270.889,50.797 271.101,50.893 C271.283,51.008 271.502,51.085 271.712,51.17 C271.924,51.256 272.139,51.336 272.344,51.47 C272.426,51.53 272.595,51.661 272.507,51.849 C272.432,51.981 272.332,52.047 272.238,52.118 C272.047,52.256 271.849,52.37 271.659,52.493 C271.486,52.603 271.25,52.767 271.223,52.868 C271.206,52.861 271.264,52.923 271.365,52.96 C271.459,52.999 271.566,53.027 271.674,53.055 L272.342,53.216 C272.457,53.253 272.57,53.281 272.695,53.355 C272.755,53.392 272.835,53.452 272.871,53.57 C272.89,53.69 272.853,53.772 272.82,53.835 C272.68,54.076 272.509,54.222 272.348,54.389 C272.189,54.55 272.016,54.708 271.899,54.868 C271.825,54.954 271.843,55.023 271.824,54.953 C271.809,54.956 271.934,54.982 272.027,54.975 C272.233,54.97 272.458,54.933 272.686,54.902 C272.93,54.892 273.113,54.797 273.477,54.924 C273.716,55.097 273.66,55.297 273.671,55.411 C273.666,55.542 273.646,55.657 273.628,55.775 C273.589,56.005 273.54,56.228 273.514,56.439 C273.5,56.54 273.494,56.655 273.507,56.702 C273.524,56.735 273.491,56.681 273.47,56.677 C273.47,56.677 273.5,56.678 273.531,56.675 C273.683,56.639 273.883,56.521 274.067,56.404 C274.258,56.285 274.448,56.155 274.666,56.04 C274.78,55.985 274.891,55.927 275.039,55.896 C275.174,55.866 275.391,55.85 275.558,56.008 C275.803,56.294 275.798,56.539 275.85,56.771 L275.951,57.44 C275.982,57.642 276.067,57.871 276.122,57.891 C276.137,57.919 276.387,57.872 276.571,57.783 L277.193,57.506 C277.418,57.424 277.631,57.297 277.995,57.346 C278.195,57.375 278.368,57.59 278.398,57.736 C278.447,57.89 278.447,58.014 278.455,58.141 C278.46,58.389 278.44,58.618 278.433,58.84 C278.424,59.057 278.425,59.283 278.47,59.429 C278.503,59.498 278.501,59.494 278.533,59.505 C278.575,59.522 278.679,59.518 278.773,59.508 C279.19,59.467 279.612,59.291 280.165,59.3 C280.304,59.312 280.504,59.351 280.645,59.532 C280.776,59.727 280.757,59.896 280.749,60.026 C280.722,60.295 280.65,60.515 280.59,60.736 C280.467,61.15 280.335,61.687 280.569,61.64 C280.929,61.724 281.411,61.652 281.9,61.711 C282.025,61.727 282.162,61.751 282.31,61.831 C282.385,61.868 282.457,61.937 282.518,62.021 C282.577,62.132 282.586,62.234 282.582,62.318 C282.544,62.625 282.434,62.827 282.339,63.042 C282.148,63.428 281.899,64.005 282.109,63.795 C282.49,63.744 282.901,63.507 283.404,63.407 C283.476,63.4 283.547,63.39 283.644,63.405 C283.747,63.417 283.864,63.496 283.92,63.586 C284.016,63.753 284.016,63.881 284.031,64.009 C284.047,64.258 284.03,64.488 284.023,64.713 C284.014,64.928 284.011,65.182 284.059,65.303 C284.08,65.326 284.02,65.313 284.113,65.297 C284.184,65.27 284.272,65.205 284.353,65.138 C284.519,65.001 284.68,64.841 284.851,64.684 C284.937,64.606 285.024,64.526 285.126,64.452 C285.229,64.386 285.33,64.285 285.555,64.295 C285.776,64.349 285.835,64.495 285.905,64.596 C285.972,64.708 286.015,64.817 286.06,64.926 L286.3,65.565 C286.377,65.764 286.506,65.985 286.557,65.901 C286.685,65.833 286.809,65.608 286.913,65.423 C287.022,65.227 287.119,65.021 287.239,64.818 C287.301,64.717 287.361,64.614 287.476,64.521 C287.633,64.413 287.767,64.466 287.884,64.485 C288.358,64.622 288.712,64.927 289.101,65.15 C289.281,65.261 289.556,65.384 289.521,65.107 C289.515,64.901 289.297,64.761 289.104,64.663 C288.719,64.448 288.212,64.354 287.957,63.954 C288.229,64.339 288.728,64.407 289.131,64.607 C289.326,64.7 289.583,64.828 289.612,65.102 C289.619,65.165 289.607,65.23 289.58,65.297 C289.534,65.365 289.448,65.394 289.382,65.382 C289.248,65.368 289.148,65.309 289.042,65.258 C288.637,65.044 288.259,64.761 287.844,64.665 C287.748,64.644 287.623,64.637 287.597,64.678 C287.536,64.732 287.476,64.828 287.426,64.924 C287.321,65.118 287.232,65.328 287.13,65.536 C287.013,65.74 286.941,65.963 286.676,66.137 C286.609,66.175 286.503,66.201 286.4,66.158 C286.311,66.117 286.259,66.056 286.219,66.002 C286.141,65.892 286.088,65.783 286.041,65.675 L285.784,65.04 C285.712,64.854 285.564,64.603 285.506,64.607 C285.45,64.602 285.218,64.781 285.078,64.927 C284.917,65.082 284.76,65.248 284.578,65.406 C284.485,65.485 284.393,65.565 284.253,65.628 C284.188,65.655 284.098,65.693 283.982,65.667 C283.864,65.656 283.762,65.54 283.73,65.466 C283.61,65.16 283.647,64.941 283.639,64.705 C283.641,64.475 283.649,64.248 283.631,64.043 C283.621,63.947 283.599,63.84 283.576,63.81 C283.563,63.807 283.586,63.815 283.573,63.813 C283.556,63.811 283.514,63.815 283.473,63.821 C283.078,63.899 282.681,64.139 282.155,64.225 C282.036,64.233 281.783,64.266 281.634,63.996 C281.552,63.75 281.63,63.634 281.657,63.505 C281.74,63.265 281.844,63.061 281.937,62.855 C282.027,62.657 282.118,62.44 282.133,62.292 C282.175,62.254 282.06,62.187 281.843,62.162 C281.428,62.108 280.985,62.2 280.449,62.09 C280.328,62.071 280.106,61.964 280.029,61.771 C279.958,61.597 279.961,61.442 279.976,61.315 C280.003,61.052 280.07,60.829 280.13,60.607 C280.19,60.39 280.252,60.172 280.268,59.986 C280.257,59.762 280.3,59.836 280.131,59.788 C279.766,59.778 279.315,59.944 278.827,60.004 C278.697,60.013 278.567,60.032 278.39,59.98 C278.195,59.936 278.04,59.732 278.001,59.586 C277.918,59.292 277.939,59.055 277.945,58.819 C277.956,58.586 277.976,58.36 277.973,58.151 C277.972,57.929 277.916,57.781 277.891,57.812 C277.797,57.789 277.567,57.857 277.376,57.94 L276.747,58.214 C276.522,58.277 276.299,58.458 275.885,58.284 C275.557,58.028 275.567,57.753 275.504,57.523 L275.406,56.84 C275.381,56.632 275.317,56.393 275.255,56.332 C275.263,56.295 275.045,56.326 274.867,56.428 C274.681,56.524 274.492,56.649 274.296,56.77 C274.094,56.889 273.903,57.023 273.609,57.094 C273.526,57.105 273.44,57.113 273.332,57.078 C273.29,57.074 273.195,57.003 273.16,56.953 C273.133,56.906 273.098,56.836 273.096,56.8 C273.061,56.624 273.085,56.507 273.101,56.384 C273.137,56.143 273.192,55.922 273.234,55.704 C273.254,55.597 273.274,55.487 273.28,55.391 C273.294,55.29 273.255,55.213 273.289,55.257 C273.221,55.222 272.932,55.241 272.73,55.266 C272.505,55.289 272.277,55.323 272.027,55.323 C271.9,55.308 271.772,55.347 271.582,55.193 C271.479,55.106 271.486,54.929 271.522,54.859 C271.554,54.779 271.593,54.721 271.633,54.671 C271.792,54.467 271.965,54.322 272.129,54.163 C272.289,54.01 272.466,53.849 272.558,53.695 C272.587,53.597 272.612,53.667 272.541,53.6 C272.473,53.554 272.363,53.519 272.263,53.485 L271.606,53.309 C271.493,53.277 271.381,53.245 271.265,53.193 C271.176,53.146 270.961,53.08 270.983,52.824 C271.129,52.495 271.357,52.451 271.549,52.311 C271.747,52.195 271.95,52.09 272.134,51.969 C272.719,51.703 272.024,51.459 271.665,51.282 C271.458,51.186 271.244,51.104 271.047,50.967 C271.001,50.929 270.945,50.893 270.923,50.816 C270.905,50.74 270.925,50.687 270.941,50.628 C270.979,50.512 271.038,50.411 271.105,50.316 C271.366,49.935 271.737,49.653 271.983,49.268" id="Fill-144" fill="#1F1214"></path>
            <path d="M272.232,48.767 C271.932,48.864 271.748,49.116 271.567,49.36 C271.399,49.613 271.094,49.84 270.752,49.838 L270.752,49.651 C271.17,49.637 271.613,49.807 271.868,50.19 C271.994,50.379 272.046,50.633 271.989,50.862 C271.937,51.092 271.805,51.281 271.66,51.44 L271.616,51.489 L271.538,51.491 L269.964,51.532 L269.964,51.107 C270.157,51.107 270.391,51.146 270.571,51.3 C270.752,51.45 270.842,51.656 270.892,51.839 C270.985,52.212 270.976,52.558 270.982,52.894 L270.984,52.985 L270.915,53.057 C270.704,53.276 270.469,53.499 270.325,53.708 C270.256,53.811 270.232,53.897 270.219,54.029 C270.209,54.161 270.211,54.315 270.212,54.468 L269.964,54.22 C270.084,54.219 270.201,54.217 270.331,54.225 C270.454,54.242 270.617,54.217 270.826,54.393 C271.001,54.604 270.973,54.766 270.988,54.889 L270.99,55.255 L270.99,55.355 L270.92,55.424 L270.126,56.204 L269.964,55.815 C270.416,55.818 270.878,55.827 271.346,55.906 C271.578,55.949 271.817,55.998 272.05,56.126 C272.277,56.237 272.527,56.512 272.513,56.83 L272.512,56.864 L272.504,56.889 C272.395,57.232 272.342,57.593 272.507,57.891 C272.666,58.193 272.996,58.402 273.326,58.604 C273.627,58.818 274.091,58.992 274.166,59.463 C274.194,59.917 273.864,60.218 273.616,60.505 C273.83,60.192 274.102,59.84 274.039,59.485 C273.966,59.134 273.54,58.991 273.21,58.811 C272.865,58.632 272.481,58.43 272.24,58.045 C271.994,57.652 272.04,57.171 272.148,56.771 L272.139,56.83 C272.136,56.537 271.686,56.391 271.275,56.332 C270.854,56.269 270.411,56.266 269.964,56.271 L269.414,56.277 L269.803,55.881 L270.583,55.087 L270.513,55.255 L270.505,54.913 C270.506,54.806 270.467,54.711 270.48,54.74 C270.508,54.754 270.414,54.719 270.307,54.721 L269.964,54.716 L269.713,54.713 L269.716,54.468 C269.718,54.313 269.717,54.158 269.733,53.982 C269.747,53.808 269.816,53.589 269.928,53.441 C270.143,53.146 270.369,52.953 270.588,52.73 L270.521,52.894 C270.523,52.562 270.529,52.23 270.462,51.952 C270.392,51.666 270.25,51.533 269.964,51.532 L269.964,51.107 L271.538,51.147 L271.417,51.198 C271.675,50.961 271.808,50.625 271.632,50.336 C271.466,50.051 271.108,49.858 270.752,49.838 L270.752,49.651 C271.037,49.674 271.291,49.527 271.488,49.293 C271.682,49.066 271.924,48.824 272.232,48.767" id="Fill-145" fill="#1F1214"></path>
            <path d="M258.076,84.899 C254.21,84.899 251.064,81.753 251.064,77.886 C251.064,74.019 254.21,70.873 258.076,70.873 C259.425,70.873 260.734,71.256 261.862,71.982 L261.437,72.644 C260.435,72.001 259.273,71.66 258.076,71.66 C254.644,71.66 251.852,74.453 251.852,77.886 C251.852,81.318 254.644,84.112 258.076,84.112 C261.509,84.112 264.302,81.318 264.302,77.886 C264.302,76.644 263.939,75.446 263.249,74.421 L263.903,73.982 C264.679,75.137 265.089,76.487 265.089,77.886 C265.089,81.753 261.943,84.899 258.076,84.899" id="Fill-146" fill="#F2AF8F"></path>
            <path d="M295.509,84.899 C291.642,84.899 288.496,81.753 288.496,77.886 C288.496,76.487 288.906,75.137 289.683,73.982 L290.336,74.421 C289.648,75.446 289.283,76.644 289.283,77.886 C289.283,81.318 292.076,84.112 295.509,84.112 C298.941,84.112 301.734,81.318 301.734,77.886 C301.734,74.453 298.941,71.66 295.509,71.66 C294.313,71.66 293.149,72.001 292.148,72.645 L291.722,71.982 C292.852,71.256 294.161,70.873 295.509,70.873 C299.375,70.873 302.522,74.019 302.522,77.886 C302.522,81.753 299.375,84.899 295.509,84.899" id="Fill-147" fill="#F2AF8F"></path>
            <path d="M271.544,77.849 C271.901,78.284 272.254,78.648 272.602,78.961 C273.498,79.057 274.707,79.195 276.212,79.124 C277.875,79.046 278.844,78.949 279.751,78.501 C280.279,77.94 280.576,77.475 280.576,77.475 C276.599,78.691 271.544,77.849 271.544,77.849" id="Fill-148" fill="#FFFFFF"></path>
            <path d="M339.783,399.166 C342.925,403.486 341.904,414.953 341.904,414.953 L336.406,414.953 L336.17,409.062 L331.773,414.717 L317.006,414.717 C317.006,414.717 315.357,408.591 318.655,406.706 C321.954,404.821 323.643,407.177 326.824,399.166 C330.005,391.155 340.019,389.741 339.783,399.166" id="Fill-149" fill="#923848"></path>
            <path d="M348.266,399.166 C351.408,403.486 350.387,414.953 350.387,414.953 L344.889,414.953 L344.653,409.062 L340.255,414.717 L325.488,414.717 C325.488,414.717 323.839,408.591 327.138,406.706 C330.437,404.821 332.125,407.177 335.307,399.166 C338.487,391.155 348.502,389.741 348.266,399.166" id="Fill-150" fill="#AC4153"></path>
            <path d="M321.827,103.081 C323.923,92.752 321.033,80.822 317.993,72.39 C314.952,63.958 321.13,61.599 328.374,60.492 C335.619,59.385 338.767,67.194 340.844,81.233 C342.922,95.272 347.14,96.851 343.513,101.786 C339.886,106.721 320.366,110.284 321.827,103.081" id="Fill-151" fill="#E46B5D"></path>
            <path d="M335.07,172.962 C359.576,170.135 361.461,180.503 364.289,207.364 C367.116,234.226 357.22,285.122 356.277,294.076 C355.335,303.03 359.105,311.983 358.162,338.845 C357.22,365.707 348.266,399.166 348.266,399.166 C348.266,399.166 342.729,402.818 335.307,399.166 C325.41,400.58 326.353,399.402 326.353,399.402 C326.353,399.402 319.52,341.201 313.864,320.937 C308.209,300.673 301.611,323.294 304.596,244.908 C306.331,199.348 313.864,183.801 313.864,178.617 C313.864,173.434 335.07,172.962 335.07,172.962" id="Fill-152" fill="#E46B5D"></path>
            <path d="M304.753,238.31 L304.38,250.837 C304.939,250.193 306.368,249.422 309.309,248.835 C316.378,247.421 324.703,252.133 324.703,252.133 C324.703,252.133 323.054,282.765 323.054,288.42 C323.054,294.076 326.353,296.196 328.002,312.69 C329.651,329.184 335.307,399.166 335.307,399.166 C335.307,399.166 335.307,322.586 331.536,308.213 C327.767,293.839 328.237,274.99 328.002,267.685 C327.767,260.38 340.648,254.333 361.618,256.846 L363.347,246.322 C363.347,246.322 314.649,229.356 304.753,238.31" id="Fill-153" fill="#D2514A"></path>
            <path d="M322.178,89.568 C322.178,89.568 322.916,107.259 326.567,106.697 C330.22,106.136 339.772,86.752 339.772,86.752 C339.772,86.752 361.542,90.123 366.178,97.919 C370.813,105.714 354.168,141.11 353.325,144.692 C352.908,146.463 362.55,167.306 366.646,191.813 C370.828,216.846 369.473,252.133 369.473,252.133 C369.473,252.133 348.502,249.542 331.773,249.306 C318.074,249.113 301.141,242.709 301.141,242.709 C301.141,242.709 310.801,144.922 307.396,138.793 C300.17,125.788 307.396,99.183 308.238,96.444 C309.081,93.705 322.178,89.568 322.178,89.568" id="Fill-154" fill="#4C6E81"></path>
            <path d="M359.465,204.014 C354.501,203.329 352.908,207.065 352.18,208.977 C351.451,210.89 350.677,211.8 349.857,213.121 C349.038,214.441 348.953,217.928 347.735,220.442 C347.147,221.659 346.919,222.174 349.149,221.855 C351.381,221.537 350.117,217.671 353.332,216.907 C354.938,216.525 353.509,220.382 352.213,223.269 C350.978,226.019 349.034,231.249 350.858,231.928 C354.333,233.224 357.809,230.809 360.931,224.211 C362.682,220.512 363.155,218.914 363.975,213.176 C364.794,207.439 362.106,204.378 359.465,204.014" id="Fill-155" fill="#E46B5D"></path>
            <path d="M355.806,221.031 L350.858,231.928 C350.858,231.928 354.942,223.701 355.806,221.031" id="Fill-156" fill="#D2514A"></path>
            <path d="M357.691,222.051 C357.691,222.051 355.728,228.178 352.507,232.262 C352.507,232.262 356.984,228.256 357.691,222.051" id="Fill-157" fill="#D2514A"></path>
            <g id="Group-161" transform="translate(350.000000, 92.000000)">
                <mask id="mask-4" fill="white">
                    <use xlink:href="#path-3"></use>
                </mask>
                <g id="Clip-159"></g>
                <path d="M10.283,130.758 C10.283,130.758 8.477,135.864 6.277,138.691 C6.277,138.691 10.361,133.193 10.283,130.758" id="Fill-158" fill="#D2514A" mask="url(#mask-4)"></path>
                <path d="M9.647,0.757 C17.125,4.022 16.1,7.199 19.473,19.856 C23.3,34.218 21.254,71.154 21.043,73.894 C20.833,76.632 16.017,119.92 16.017,119.92 L0.622,117.092 C0.622,117.092 6.18,74.399 5.021,68.71 C4.191,64.638 0.8,32.237 0.376,29.727 C-2.215,14.41 9.647,0.757 9.647,0.757" id="Fill-160" fill="#40606F" mask="url(#mask-4)"></path>
            </g>
            <path d="M328.398,61.716 C325.884,62.747 320.809,66.364 317.305,69.733 C317.423,70.545 317.646,71.426 317.993,72.39 C319.236,75.838 320.443,79.876 321.304,84.146 C322.727,85.774 324.384,87.506 326.63,87.014 C329.111,86.469 331.166,79.883 331.738,76.528 C331.341,70.937 329.75,66.367 328.398,61.716" id="Fill-162" fill="#D2514A"></path>
            <path d="M303.814,61.751 C304.298,66.501 304.938,81.555 304.375,89 C303.814,96.444 301.074,107.4 302.339,111.895 C303.603,116.389 301.917,119.198 300.372,123.412 C298.827,127.626 299.529,130.997 299.529,130.997 L318.28,130.997 C318.28,130.997 322.916,115.687 319.545,111.192 C316.174,106.697 324.602,97.849 320.949,82.539 C319.613,76.937 301.706,41.103 303.814,61.751" id="Fill-163" fill="#F2AF8F"></path>
            <path d="M332.546,59.495 C337.351,68.96 331.295,83.258 326.731,85.154 C322.843,86.769 313.951,80.526 309.147,71.061 C304.342,61.596 301.773,53.401 311.828,48.459 C318.509,45.175 327.741,50.03 332.546,59.495" id="Fill-164" fill="#E46B5D"></path>
            <path d="M313.178,62.561 C313.354,63.028 312.079,63.94 310.331,64.597 C308.582,65.254 307.023,65.407 306.847,64.94 C306.671,64.472 307.946,63.56 309.694,62.903 C311.442,62.246 313.002,62.093 313.178,62.561" id="Fill-165" fill="#F2AF8F"></path>
            <path d="M312.94,68.628 C313.276,69.527 313.121,70.417 312.592,70.616 C312.063,70.815 311.359,70.247 311.023,69.349 C310.685,68.45 310.84,67.56 311.369,67.361 C311.898,67.162 312.602,67.73 312.94,68.628" id="Fill-166" fill="#7F3E3B"></path>
            <path d="M324.798,57.29 C324.974,57.758 323.699,58.67 321.951,59.327 C320.203,59.984 318.644,60.137 318.468,59.669 C318.292,59.201 319.566,58.29 321.315,57.632 C323.063,56.976 324.622,56.822 324.798,57.29" id="Fill-167" fill="#F2AF8F"></path>
            <path d="M324.56,63.358 C324.898,64.256 324.742,65.146 324.213,65.345 C323.684,65.544 322.981,64.977 322.643,64.078 C322.305,63.179 322.46,62.29 322.989,62.091 C323.52,61.892 324.222,62.459 324.56,63.358" id="Fill-168" fill="#7F3E3B"></path>
            <path d="M317.906,70.098 C317.906,70.098 317.613,72.338 318.75,72.793 C319.886,73.247 321.152,71.624 321.152,71.624" id="Stroke-169" stroke="#D2514A"></path>
            <path d="M319.109,77.507 C319.109,77.507 324.632,76.513 327.283,73.917 C327.283,73.917 327.194,78.561 324.652,79.563 C323.451,80.037 321.396,78.642 319.109,77.507" id="Fill-170" fill="#D2514A"></path>
            <path d="M307.615,43.653 C305.678,42.352 304.249,42.256 302.154,48.924 C300.059,55.591 306.535,65.974 306.535,65.974 C306.535,65.974 303.487,56.354 307.298,54.544 C311.107,52.734 307.615,43.653 307.615,43.653" id="Fill-171" fill="#F2AF8F"></path>
            <path d="M307.615,43.653 C306.535,49.686 303.551,55.845 310.536,54.448 C317.521,53.051 324.125,64.1 331.364,57.751 C331.364,57.751 335.637,72.062 333.732,77.903 C331.826,83.745 328.062,87.468 329.078,95.215 C330.094,102.962 336.825,104.486 334.285,110.836 C331.745,117.186 331.745,125.568 333.396,131.41 L357.398,131.41 C357.398,131.41 351.176,125.441 353.335,117.821 C355.494,110.201 351.43,103.216 346.223,99.152 C341.016,95.088 346.857,79.086 341.523,66.259 C336.19,53.432 334.466,46.089 327.481,40.12 C313.425,28.108 307.488,42.256 307.615,43.653" id="Fill-172" fill="#F2AF8F"></path>
            <path d="M327.283,73.917 C324.632,76.513 319.109,77.507 319.109,77.507 C319.816,77.857 320.496,78.229 321.14,78.566 C321.489,78.463 321.865,78.331 322.291,78.136 C324.612,77.075 326.183,76.026 327.146,75.279 C327.27,74.494 327.283,73.917 327.283,73.917" id="Fill-173" fill="#FFFFFF"></path>
            <path d="M307.049,51.001 C306.751,51.512 306.563,52.088 306.521,52.667 C306.478,53.246 306.649,53.832 307.033,54.247 C307.8,55.095 309.013,55.384 310.145,55.544 C312.562,55.653 314.814,56.886 316.743,58.214 C318.692,59.558 320.618,60.97 322.868,61.612 C325.109,62.247 327.557,61.987 329.762,61.118 L328.103,61.77 C327.523,61.9 326.95,62.092 326.357,62.171 C325.76,62.215 325.16,62.315 324.558,62.241 C324.259,62.213 323.952,62.225 323.657,62.165 L322.769,61.984 C320.401,61.392 318.417,59.926 316.465,58.628 C314.534,57.266 312.468,56.121 310.086,55.922 C308.927,55.708 307.657,55.375 306.844,54.4 C306.45,53.909 306.313,53.252 306.399,52.656 C306.484,52.057 306.717,51.492 307.049,51.001" id="Fill-174" fill="#F2AF8F"></path>
            <path d="M309.605,47.911 C308.607,49.314 307.712,50.87 307.475,52.537 C307.375,53.361 307.486,54.207 307.958,54.865 C308.417,55.542 309.199,55.913 309.958,56.234 C311.588,56.852 313.206,57.633 314.558,58.771 C315.235,59.335 315.844,59.973 316.416,60.627 C316.982,61.276 317.521,61.985 318.344,62.305 C317.476,62.093 316.854,61.38 316.236,60.794 C315.629,60.175 315.005,59.584 314.318,59.072 C312.958,58.031 311.407,57.277 309.784,56.703 C308.971,56.342 308.115,55.923 307.586,55.125 C307.053,54.347 306.925,53.358 307.097,52.48 C307.438,50.705 308.445,49.194 309.605,47.911" id="Fill-175" fill="#F2AF8F"></path>
            <path d="M320.181,36.328 C327.343,38.954 333.681,44.238 336.993,51.232 C338.629,54.692 340.212,58.178 341.706,61.704 C343.19,65.234 344.622,68.79 345.772,72.458 C346.048,73.378 346.308,74.305 346.505,75.252 C346.718,76.184 346.858,77.182 346.776,78.162 C346.588,80.099 346.167,81.958 345.875,83.847 C345.574,85.73 345.311,87.624 345.302,89.521 C345.314,90.465 345.341,91.419 345.545,92.336 C345.702,93.263 346.067,94.145 346.609,94.884 C349.313,97.522 351.904,100.444 353.955,103.679 C354.974,105.303 355.891,107.004 356.526,108.816 C357.145,110.609 357.514,112.61 356.898,114.45 C357.474,112.598 357.062,110.625 356.411,108.858 C355.741,107.072 354.796,105.403 353.749,103.812 C352.706,102.217 351.55,100.694 350.311,99.245 C349.686,98.524 349.047,97.816 348.383,97.134 C348.042,96.801 347.717,96.452 347.363,96.134 C347.009,95.827 346.672,95.473 346.348,95.088 C345.757,94.298 345.369,93.364 345.199,92.408 C344.981,91.457 344.946,90.484 344.927,89.52 C344.923,87.588 345.176,85.676 345.464,83.782 C345.742,81.889 346.15,80.003 346.318,78.128 C346.389,77.201 346.253,76.279 346.035,75.352 C345.837,74.428 345.57,73.513 345.294,72.603 C344.182,68.959 342.778,65.397 341.323,61.865 C339.857,58.335 338.302,54.841 336.693,51.372 C335.065,47.94 332.745,44.823 329.87,42.32 C327.039,39.774 323.749,37.706 320.181,36.328" id="Fill-176" fill="#F2AF8F"></path>
            <path d="M325.407,40.482 C326.691,40.505 327.901,41.058 329.008,41.677 C330.109,42.327 331.14,43.102 332.08,43.972 C333.97,45.706 335.569,47.728 337.013,49.836 C338.461,51.948 339.741,54.163 340.954,56.409 C342.169,58.656 343.321,60.938 344.36,63.273 C345.391,65.612 346.335,67.989 347.156,70.411 C347.565,71.622 347.944,72.843 348.281,74.078 C348.448,74.696 348.607,75.316 348.739,75.947 C348.849,76.586 348.945,77.222 348.995,77.864 C349.216,80.437 348.867,83.003 348.426,85.508 C348.209,86.764 347.977,88.016 347.894,89.284 C347.813,90.543 347.906,91.848 348.455,93.01 C347.869,91.867 347.731,90.55 347.772,89.278 C347.814,87.998 348.008,86.731 348.185,85.47 C348.576,82.957 348.875,80.416 348.612,77.899 C348.553,77.273 348.445,76.647 348.329,76.033 C348.192,75.418 348.034,74.803 347.864,74.193 C347.523,72.97 347.139,71.759 346.726,70.558 C345.896,68.156 344.94,65.797 343.903,63.476 C342.884,61.147 341.751,58.869 340.555,56.625 C339.364,54.376 338.081,52.176 336.696,50.051 C335.302,47.932 333.749,45.902 331.914,44.149 C331.011,43.258 330.017,42.461 328.946,41.781 C327.869,41.134 326.689,40.546 325.407,40.482" id="Fill-177" fill="#F2AF8F"></path>
            <path d="M334.938,77.903 C333.566,79.674 332.4,81.596 331.408,83.593 C330.425,85.593 329.633,87.696 329.217,89.875 C328.247,94.268 329.681,98.71 331.518,102.731 C332.405,104.759 333.32,106.959 333.17,109.28 C333.133,111.592 332.167,113.721 331.512,115.818 C330.863,117.947 330.422,120.143 330.189,122.362 C329.951,124.58 329.873,126.827 330.097,129.056 C329.524,124.61 329.921,120.042 331.143,115.709 C331.444,114.624 331.836,113.559 332.161,112.509 C332.461,111.447 332.7,110.361 332.715,109.265 C332.845,107.051 331.963,104.963 331.061,102.931 C330.154,100.883 329.336,98.758 328.873,96.545 C328.359,94.341 328.347,92.003 328.841,89.799 C329.808,85.365 332.112,81.359 334.938,77.903" id="Fill-178" fill="#F2AF8F"></path>
            <path d="M321.655,85.372 C321.912,88.486 322.042,91.612 322.031,94.741 C322.013,97.868 321.875,101.005 321.339,104.113 L320.854,106.395 C320.763,107.15 320.694,107.914 320.799,108.667 C320.938,110.184 321.645,111.614 321.973,113.164 C322.726,116.272 322.252,119.475 321.521,122.49 C322.073,119.433 322.398,116.252 321.6,113.257 C321.228,111.767 320.525,110.333 320.348,108.72 C320.23,107.923 320.292,107.116 320.382,106.324 L320.849,104.02 C321.416,100.975 321.549,97.847 321.648,94.734 C321.726,91.618 321.73,88.495 321.655,85.372" id="Fill-179" fill="#F2AF8F"></path>
        </g>
    </g>
</svg>